<svg xmlns="http://www.w3.org/2000/svg" width="17.038" height="18.998" viewBox="0 0 17.038 18.998">
  <g id="add-friend_1_" data-name="add-friend (1)" transform="translate(-3.962 -2.2)">
    <path id="Path_157451" data-name="Path 157451" d="M16.5,6.422A4.377,4.377,0,0,0,12,2.2,4.377,4.377,0,0,0,7.5,6.422,4.377,4.377,0,0,0,12,10.643,4.377,4.377,0,0,0,16.5,6.422Zm-7,0a2.411,2.411,0,0,1,2.5-2.3,2.411,2.411,0,0,1,2.5,2.3,2.411,2.411,0,0,1-2.5,2.3A2.411,2.411,0,0,1,9.5,6.422ZM6.6,16.209A3.472,3.472,0,0,1,10,13.522h4a4.116,4.116,0,0,1,2.3.768.994.994,0,0,0,1.4-.1.9.9,0,0,0-.1-1.343A6.03,6.03,0,0,0,14,11.6H10a5.582,5.582,0,0,0-5.4,4.126l-.5,1.823a2.741,2.741,0,0,0,.5,2.591A3.1,3.1,0,0,0,7,21.2h6.9a.96.96,0,1,0,0-1.919H7a.724.724,0,0,1-.7-.384.757.757,0,0,1-.3-.864l.6-1.823Z" transform="translate(0 0)"/>
    <path id="Path_157452" data-name="Path 157452" d="M18,22a.945.945,0,0,0,1-1V20h1a1,1,0,0,0,0-2H19V17a1,1,0,0,0-2,0v1H16a1,1,0,0,0,0,2h1v1A.945.945,0,0,0,18,22Z" transform="translate(0 -0.802)"/>
  </g>
</svg>
