<svg width="611" height="318" viewBox="0 0 611 318" fill="none" xmlns="http://www.w3.org/2000/svg">
<path fill-rule="evenodd" clip-rule="evenodd" d="M17.6996 292.5V316.6H0.599609V245.5H28.8996C34.3663 245.5 39.1996 246.5 43.3996 248.5C47.5996 250.5 50.8329 253.367 53.0996 257.1C55.3663 260.767 56.4996 264.933 56.4996 269.6C56.4996 276.533 54.0329 282.1 49.0996 286.3C44.0996 290.433 37.2996 292.5 28.6996 292.5H17.6996ZM17.6996 279.3H28.8996C32.2329 279.3 34.7663 278.467 36.4996 276.8C38.2329 275.133 39.0996 272.767 39.0996 269.7C39.0996 266.433 38.1996 263.8 36.3996 261.8C34.5996 259.8 32.1663 258.8 29.0996 258.8H17.6996V279.3Z" fill="white"/>
<path fill-rule="evenodd" clip-rule="evenodd" d="M125.9 282.5C125.9 289.433 124.6 295.567 122 300.9C119.467 306.233 115.834 310.367 111.1 313.3C106.3 316.167 100.9 317.6 94.9002 317.6C88.8335 317.6 83.4668 316.2 78.8002 313.4C74.0668 310.6 70.4002 306.633 67.8002 301.5C65.2002 296.3 63.8335 290.367 63.7002 283.7V279.6C63.7002 272.667 64.9668 266.533 67.5002 261.2C70.0335 255.867 73.7002 251.767 78.5002 248.9C83.2335 245.967 88.6668 244.5 94.8002 244.5C100.8 244.5 106.167 245.933 110.9 248.8C115.634 251.667 119.3 255.767 121.9 261.1C124.5 266.367 125.834 272.433 125.9 279.3V282.5ZM108.4 279.5C108.4 272.433 107.234 267.067 104.9 263.4C102.567 259.733 99.2002 257.9 94.8002 257.9C86.2002 257.9 81.6335 264.333 81.1002 277.2V282.5C81.1002 289.433 82.2669 294.767 84.6002 298.5C86.8669 302.233 90.3002 304.1 94.9002 304.1C99.2335 304.1 102.567 302.267 104.9 298.6C107.234 294.933 108.4 289.667 108.4 282.8V279.5Z" fill="white"/>
<path d="M171.4 297.7C171.4 295.233 170.5 293.3 168.7 291.9C166.967 290.5 163.867 289.033 159.4 287.5C154.933 286.033 151.267 284.6 148.4 283.2C139.2 278.667 134.6 272.433 134.6 264.5C134.6 260.567 135.767 257.1 138.1 254.1C140.367 251.1 143.6 248.767 147.8 247.1C152 245.367 156.733 244.5 162 244.5C167.067 244.5 171.633 245.433 175.7 247.3C179.767 249.1 182.9 251.7 185.1 255.1C187.367 258.433 188.5 262.267 188.5 266.6H171.4C171.4 263.733 170.533 261.5 168.8 259.9C167 258.3 164.6 257.5 161.6 257.5C158.533 257.5 156.1 258.167 154.3 259.5C152.567 260.833 151.7 262.567 151.7 264.7C151.7 266.5 152.667 268.133 154.6 269.6C156.533 271.067 159.967 272.6 164.9 274.2C169.833 275.8 173.867 277.5 177 279.3C184.667 283.7 188.5 289.8 188.5 297.6C188.5 303.8 186.167 308.7 181.5 312.3C176.833 315.833 170.4 317.6 162.2 317.6C156.467 317.6 151.233 316.567 146.5 314.5C141.833 312.433 138.333 309.6 136 306C133.667 302.4 132.5 298.267 132.5 293.6H149.7C149.7 297.4 150.667 300.2 152.6 302C154.6 303.8 157.8 304.7 162.2 304.7C165 304.7 167.233 304.1 168.9 302.9C170.567 301.633 171.4 299.9 171.4 297.7Z" fill="white"/>
<path d="M253.1 258.8H231.8V316.6H214.6V258.8H193.7V245.5H253.1V258.8Z" fill="white"/>
<path d="M304.4 286.4H277.5V303.4H309.3V316.6H260.3V245.5H309.4V258.8H277.5V273.7H304.4V286.4Z" fill="white"/>
<path fill-rule="evenodd" clip-rule="evenodd" d="M342.7 291.5H333.4V316.6H316.3V245.5H344.3C352.7 245.5 359.3 247.367 364.1 251.1C368.833 254.833 371.2 260.133 371.2 267C371.2 271.933 370.2 276.033 368.2 279.3C366.2 282.5 363.066 285.133 358.8 287.2L373.6 315.9V316.6H355.3L342.7 291.5ZM333.4 278.3H344.2C347.466 278.3 349.933 277.467 351.6 275.8C353.2 274.067 354 271.667 354 268.6C354 265.533 353.2 263.133 351.6 261.4C349.933 259.6 347.466 258.7 344.2 258.7H333.4V278.3Z" fill="white"/>
<path d="M428.2 297.3L442.4 245.5H461.5L437.6 316.6H418.8L395.1 245.5H414.1L428.2 297.3Z" fill="white"/>
<path d="M484.9 316.6H467.8V245.5H484.9V316.6Z" fill="white"/>
<path fill-rule="evenodd" clip-rule="evenodd" d="M496.8 316.6V245.5H522.4C531.533 245.5 538.5 247.167 543.3 250.5C548.033 253.9 550.4 258.767 550.4 265.1C550.4 268.833 549.567 272 547.9 274.6C546.167 277.2 543.667 279.1 540.4 280.3C544.133 281.3 546.967 283.133 548.9 285.8C550.9 288.467 551.9 291.733 551.9 295.6C551.9 302.533 549.7 307.767 545.3 311.3C540.9 314.767 534.366 316.533 525.7 316.6H496.8ZM513.9 275.2H522.9C526.633 275.133 529.3 274.433 530.9 273.1C532.5 271.767 533.3 269.8 533.3 267.2C533.3 264.2 532.433 262.033 530.7 260.7C528.966 259.367 526.166 258.7 522.3 258.7H513.9V275.2ZM513.9 286.4V303.5H525.2C528.266 303.5 530.633 302.767 532.3 301.3C533.966 299.9 534.8 297.933 534.8 295.4C534.8 289.467 531.866 286.467 526 286.4H513.9Z" fill="white"/>
<path d="M605.4 286.4H578.5V303.4H610.3V316.6H561.3V245.5H610.4V258.8H578.5V273.7H605.4V286.4Z" fill="white"/>
<path d="M343.6 0.399902L330.2 27.0999H196.9L183.6 0.399902H343.6Z" fill="white"/>
<path d="M323.6 200.4H283.6L383.6 0.399902H423.6L323.6 200.4Z" fill="white"/>
<path d="M323.6 200.4H283.6L183.6 0.399902H223.6L323.6 200.4Z" fill="white"/>
<path d="M343.6 0.399902L330.2 27.0999L283.6 120.4L263.6 80.3999L290.2 27.0999L303.6 0.399902H343.6Z" fill="white"/>
</svg>
