<svg xmlns="http://www.w3.org/2000/svg" width="15.5" height="17.973" viewBox="0 0 15.5 17.973">
  <path id="notification_4_" data-name="notification (4)" d="M0,9.707v-.18a2.965,2.965,0,0,1,.5-1.5,4.011,4.011,0,0,0,.983-1.905c0-.549,0-1.106.048-1.654C1.774,1.827,4.387,0,6.968,0h.064c2.581,0,5.194,1.827,5.449,4.469.048.549,0,1.106.04,1.654A4.08,4.08,0,0,0,13.5,8.037a2.888,2.888,0,0,1,.5,1.49V9.7a2.937,2.937,0,0,1-.7,1.968A3.71,3.71,0,0,1,10.955,12.8a37.12,37.12,0,0,1-7.918,0A3.751,3.751,0,0,1,.688,11.667,2.968,2.968,0,0,1,0,9.707Zm4.986,5.818a2.541,2.541,0,0,0,3.532.416,2.379,2.379,0,0,0,.431-.416" transform="translate(0.75 0.75)" fill="none" stroke="#000" stroke-linecap="round" stroke-linejoin="round" stroke-width="1.5" fill-rule="evenodd" opacity="0.5"/>
</svg>
