<svg id="Layer_1" data-name="Layer 1" xmlns="http://www.w3.org/2000/svg" viewBox="0 0 59.99 60"><path d="M0,30A30,30,0,1,1,29.93,60,29.94,29.94,0,0,1,0,30Zm3.42,0A26.58,26.58,0,1,0,29.93,3.42,26.65,26.65,0,0,0,3.42,30Z"/><path d="M32.39,30l4.88,5,1.36,1.4a1.75,1.75,0,0,1,.09,2.55,1.68,1.68,0,0,1-2.49-.17q-2.94-2.93-5.86-5.87c-.15-.15-.29-.33-.58-.69a4.72,4.72,0,0,1-.42.67l-5.9,5.91a1.71,1.71,0,0,1-1.82.54A1.63,1.63,0,0,1,20.49,38a1.86,1.86,0,0,1,.69-1.67L27,30.48a5.47,5.47,0,0,1,.56-.44c-.24-.26-.38-.42-.53-.57l-5.91-5.91a1.73,1.73,0,1,1,2.42-2.45q2.88,2.85,5.73,5.73a6.68,6.68,0,0,1,.57.75c.3-.27.46-.42.61-.57l5.87-5.87a1.83,1.83,0,0,1,1.62-.66,1.54,1.54,0,0,1,1.32,1.11,1.82,1.82,0,0,1-.44,1.92c-1,1-1.92,1.93-2.88,2.89Z"/></svg>