<svg xmlns="http://www.w3.org/2000/svg" width="26" height="26" viewBox="0 0 26 26">
  <path id="download_1_" data-name="download (1)" d="M26.7,17.6a1.3,1.3,0,0,0-1.3,1.3v5.2a1.3,1.3,0,0,1-1.3,1.3H5.9a1.3,1.3,0,0,1-1.3-1.3V18.9a1.3,1.3,0,1,0-2.6,0v5.2A3.9,3.9,0,0,0,5.9,28H24.1A3.9,3.9,0,0,0,28,24.1V18.9A1.3,1.3,0,0,0,26.7,17.6ZM14.077,19.823a1.3,1.3,0,0,0,.429.273,1.222,1.222,0,0,0,.988,0,1.3,1.3,0,0,0,.429-.273l5.2-5.2a1.305,1.305,0,0,0-1.846-1.846L16.3,15.767V3.3a1.3,1.3,0,0,0-2.6,0V15.767l-2.977-2.99a1.305,1.305,0,1,0-1.846,1.846Z" transform="translate(-2 -2)" fill="#111526"/>
</svg>
