<svg xmlns="http://www.w3.org/2000/svg" width="15.461" height="15.25" viewBox="0 0 15.461 15.25">
  <g id="edit_3_" data-name="edit (3)" transform="translate(-64.983 -66.255)">
    <path id="Path_116601" data-name="Path 116601" d="M79.8,93.507a.394.394,0,0,0-.393.394v3.5a1.183,1.183,0,0,1-1.179,1.183H67.2A1.183,1.183,0,0,1,66.019,97.4V87.127A1.183,1.183,0,0,1,67.2,85.944h3.49a.394.394,0,0,0,0-.789H67.2a1.971,1.971,0,0,0-1.965,1.972V97.4A1.971,1.971,0,0,0,67.2,99.375h11.03A1.971,1.971,0,0,0,80.194,97.4V93.9a.394.394,0,0,0-.393-.394Z" transform="translate(0 -18.12)" stroke="#000" stroke-width="0.5"/>
    <rect id="Rectangle_6957" data-name="Rectangle 6957" width="8.52" height="2.748" transform="translate(70.943 73.602) rotate(-45)"/>
    <path id="Path_116602" data-name="Path 116602" d="M197.775,265.353l2.147-.595-1.552-1.552Z" transform="translate(-127.372 -189.22)"/>
    <path id="Path_116603" data-name="Path 116603" d="M383.656,66.557h0a1.033,1.033,0,0,0-1.459,0l-.438.438,1.943,1.943.438-.438a1.033,1.033,0,0,0,0-1.459Z" transform="translate(-304.209)"/>
  </g>
</svg>
