<svg xmlns="http://www.w3.org/2000/svg" width="19.5" height="19.5" viewBox="0 0 19.5 19.5">
  <path id="facebook_2_" data-name="facebook (2)" d="M142.625,128A3.381,3.381,0,0,1,146,131.375v11.25A3.381,3.381,0,0,1,142.625,146h-2.2v-6.973h2.332l.352-2.719h-2.684v-1.734a1.5,1.5,0,0,1,.275-.984,1.367,1.367,0,0,1,1.072-.328l1.43-.012v-2.426a15.712,15.712,0,0,0-2.086-.105,3.481,3.481,0,0,0-2.549.938,3.543,3.543,0,0,0-.955,2.649v2h-2.344v2.719h2.344V146h-6.235A3.381,3.381,0,0,1,128,142.625v-11.25A3.381,3.381,0,0,1,131.375,128Z" transform="translate(-127.25 -127.25)" fill="none" stroke="#000" stroke-width="1.5" opacity="0.5"/>
</svg>
