<svg xmlns="http://www.w3.org/2000/svg" width="20" height="20" viewBox="0 0 20 20">
  <g id="circle-wavy-question" transform="translate(0.097 0.017)">
    <rect id="Rectangle_4759" data-name="Rectangle 4759" width="20" height="20" transform="translate(-0.097 -0.017)" fill="none"/>
    <path id="Path_115801" data-name="Path 115801" d="M26.4,38.01c-.726-.726-.245-2.251-.614-3.145-.383-.926-1.79-1.672-1.79-2.659s1.406-1.732,1.79-2.659c.37-.894-.112-2.418.614-3.145s2.251-.245,3.145-.614c.926-.383,1.672-1.79,2.659-1.79s1.732,1.406,2.659,1.79c.894.37,2.418-.112,3.145.614s.245,2.251.614,3.145c.383.926,1.79,1.672,1.79,2.659s-1.406,1.732-1.79,2.659c-.37.894.112,2.418-.614,3.145s-2.251.245-3.145.614c-.926.383-1.672,1.79-2.659,1.79s-1.732-1.406-2.659-1.79C28.655,38.255,27.13,38.737,26.4,38.01Z" transform="translate(-22.16 -22.108)" fill="none" stroke="#000" stroke-linecap="round" stroke-linejoin="round" stroke-width="1.5"/>
    <circle id="Ellipse_164" data-name="Ellipse 164" cx="1" cy="1" r="1" transform="translate(8.903 12.983)"/>
    <path id="Path_115802" data-name="Path 115802" d="M102.209,85.055v-.631a2.21,2.21,0,1,0-2.21-2.21" transform="translate(-92.162 -73.693)" fill="none" stroke="#000" stroke-linecap="round" stroke-linejoin="round" stroke-width="1.5"/>
  </g>
</svg>
