<svg xmlns="http://www.w3.org/2000/svg" width="21" height="21" viewBox="0 0 21 21">
  <g id="fingerprint" transform="translate(-0.451 -0.451)" opacity="0.5">
    <rect id="Rectangle_7327" data-name="Rectangle 7327" width="21" height="21" transform="translate(0.451 0.451)" fill="none"/>
    <path id="Path_131909" data-name="Path 131909" d="M50.689,87.257a10.986,10.986,0,0,0,1.148-4.9,5.505,5.505,0,0,1,2.068-4.306m3.447,4.306a16.472,16.472,0,0,1-2.066,8.013" transform="translate(-46.427 -71.426)" fill="none" stroke="#000" stroke-linecap="round" stroke-linejoin="round" stroke-width="1.5"/>
    <path id="Path_131910" data-name="Path 131910" d="M96.006,98.767a2.758,2.758,0,1,1,5.516,0,19.231,19.231,0,0,1-1.834,8.222" transform="translate(-87.838 -87.841)" fill="none" stroke="#000" stroke-linecap="round" stroke-linejoin="round" stroke-width="1.5"/>
    <path id="Path_131911" data-name="Path 131911" d="M43.092,45.108a24.943,24.943,0,0,0,.469-4.826,8.273,8.273,0,1,0-16.547,0,8.26,8.26,0,0,1-.471,2.758m5.711,0a13.7,13.7,0,0,1-1.561,4.123" transform="translate(-24.362 -29.356)" fill="none" stroke="#000" stroke-linecap="round" stroke-linejoin="round" stroke-width="1.5"/>
    <path id="Path_131912" data-name="Path 131912" d="M120.006,64.051a5.52,5.52,0,0,1,6.205,5.473,22.3,22.3,0,0,1-.171,2.763m-.524,2.753q-.2.765-.447,1.508" transform="translate(-109.77 -58.598)" fill="none" stroke="#000" stroke-linecap="round" stroke-linejoin="round" stroke-width="1.5"/>
  </g>
</svg>
