<svg xmlns="http://www.w3.org/2000/svg" width="20.4" height="20.4" viewBox="0 0 20.4 20.4">
  <g id="_23._Help" data-name="23. Help" transform="translate(0.2 0.2)">
    <path id="Path_157453" data-name="Path 157453" d="M10,0A10,10,0,1,0,20,10,10,10,0,0,0,10,0Zm0,18.333A8.333,8.333,0,1,1,18.333,10,8.333,8.333,0,0,1,10,18.333Z" stroke="#000" stroke-width="0.4"/>
    <path id="Path_157454" data-name="Path 157454" d="M11.931,5.052A3.333,3.333,0,0,0,8,8.333a.833.833,0,1,0,1.667,0,1.667,1.667,0,0,1,1.976-1.639,1.687,1.687,0,0,1,1.333,1.329,1.667,1.667,0,0,1-.833,1.771A3.037,3.037,0,0,0,10.5,12.5a.8.8,0,0,0,.833.8.866.866,0,0,0,.833-.87,1.372,1.372,0,0,1,.775-1.173,3.333,3.333,0,0,0-1.011-6.2ZM11.35,15h-.008a.837.837,0,1,0,.008,0Z" transform="translate(-1.333 -0.833)" stroke="#000" stroke-width="0.4"/>
  </g>
</svg>
