<svg width="377" height="50" viewBox="0 0 377 50" fill="none" xmlns="http://www.w3.org/2000/svg">
<path fill-rule="evenodd" clip-rule="evenodd" d="M80.2002 29V41.1H71.7002V5.5H85.8999C88.5666 5.5 90.9668 6 93.1001 7C95.1668 8 96.7666 9.43334 97.8999 11.3C99.0999 13.1 99.7002 15.2 99.7002 17.6C99.7002 21.0667 98.4332 23.8333 95.8999 25.9C93.4332 27.9667 90.0335 29 85.7002 29H80.2002ZM80.2002 22.4H85.7998C87.4665 22.4 88.7334 21.9667 89.6001 21.1C90.4668 20.3 90.8999 19.1333 90.8999 17.6C90.8999 15.9333 90.4668 14.6 89.6001 13.6C88.6668 12.6 87.4332 12.1 85.8999 12.1H80.2002V22.4Z" fill="black"/>
<path fill-rule="evenodd" clip-rule="evenodd" d="M134.3 24C134.3 27.4667 133.667 30.5333 132.4 33.2C131.133 35.8667 129.3 37.9333 126.9 39.4C124.567 40.8 121.866 41.5 118.8 41.5C115.8 41.5 113.133 40.8333 110.8 39.5C108.4 38.1 106.566 36.1 105.3 33.5C103.966 30.9 103.267 27.9333 103.2 24.6V22.6C103.2 19.0667 103.833 16 105.1 13.4C106.367 10.7333 108.2 8.66666 110.6 7.2C113 5.73333 115.733 5 118.8 5C121.8 5 124.466 5.73333 126.8 7.2C129.2 8.6 131.033 10.6333 132.3 13.3C133.633 15.9 134.3 18.9333 134.3 22.4V24ZM125.6 22.5C125.6 18.9667 125 16.2667 123.8 14.4C122.666 12.6 121 11.7 118.8 11.7C114.466 11.7 112.2 14.9333 112 21.4L111.9 24C111.9 27.4667 112.5 30.1333 113.7 32C114.834 33.8667 116.533 34.8 118.8 34.8C121 34.8 122.666 33.9 123.8 32.1C125 30.2333 125.6 27.5667 125.6 24.1V22.5Z" fill="black"/>
<path d="M157.1 31.6C157.1 30.3333 156.634 29.3667 155.7 28.7C154.834 27.9667 153.3 27.2333 151.1 26.5C148.833 25.7667 147 25.0333 145.6 24.3C141 22.0333 138.7 18.9333 138.7 15C138.7 13 139.267 11.2667 140.4 9.8C141.533 8.26667 143.166 7.1 145.3 6.3C147.366 5.43334 149.733 5 152.4 5C154.933 5 157.2 5.46666 159.2 6.39999C161.267 7.26666 162.867 8.56667 164 10.3C165.067 11.9667 165.6 13.9 165.6 16.1H157.1C157.1 14.6333 156.666 13.5 155.8 12.7C154.866 11.9 153.667 11.5 152.2 11.5C150.667 11.5 149.433 11.8333 148.5 12.5C147.633 13.1667 147.2 14.0333 147.2 15.1C147.2 15.9667 147.7 16.8 148.7 17.6C149.634 18.3333 151.333 19.0667 153.8 19.8C156.266 20.6 158.3 21.4667 159.9 22.4C163.7 24.6 165.6 27.6667 165.6 31.6C165.6 34.6667 164.433 37.1 162.1 38.9C159.767 40.6333 156.567 41.5 152.5 41.5C149.633 41.5 147.034 41 144.7 40C142.367 38.9333 140.6 37.5 139.4 35.7C138.2 33.9 137.6 31.8333 137.6 29.5H146.2C146.2 31.4333 146.7 32.8333 147.7 33.7C148.7 34.6333 150.3 35.1 152.5 35.1C153.9 35.1 155 34.8 155.8 34.2C156.666 33.6 157.1 32.7333 157.1 31.6Z" fill="black"/>
<path d="M197.9 12.1H187.3V41.1H178.7V12.1H168.2V5.5H197.9V12.1Z" fill="black"/>
<path d="M223.6 26H210.1V34.5H226V41.1H201.6V5.5H226.1V12.1H210.1V19.6H223.6V26Z" fill="black"/>
<path fill-rule="evenodd" clip-rule="evenodd" d="M242.7 28.5H238.1V41.1H229.5V5.5H243.5C247.7 5.5 251 6.43334 253.4 8.3C255.8 10.1667 257 12.8 257 16.2C257 18.6667 256.5 20.7333 255.5 22.4C254.5 24 252.933 25.3 250.8 26.3L258.2 40.7V41.1H249L242.7 28.5ZM238.1 21.9H243.5C245.1 21.9 246.334 21.4667 247.2 20.6C248 19.7333 248.4 18.5333 248.4 17C248.4 15.4667 248 14.2667 247.2 13.4C246.334 12.5333 245.1 12.1 243.5 12.1H238.1V21.9Z" fill="black"/>
<path d="M285.5 31.4L292.6 5.5H302.1L290.2 41.1H280.8L268.9 5.5H278.4L285.5 31.4Z" fill="black"/>
<path d="M313.8 41.1H305.3V5.5H313.8V41.1Z" fill="black"/>
<path fill-rule="evenodd" clip-rule="evenodd" d="M319.8 41.1V5.5H332.6C337.133 5.5 340.6 6.33333 343 8C345.4 9.66667 346.6 12.1 346.6 15.3C346.6 17.1667 346.166 18.7333 345.3 20C344.433 21.3333 343.2 22.3 341.6 22.9C343.467 23.3667 344.9 24.2667 345.9 25.6C346.833 26.9333 347.3 28.5667 347.3 30.5C347.3 34.0333 346.2 36.6667 344 38.4C341.8 40.1333 338.534 41.0333 334.2 41.1H319.8ZM328.4 20.3H332.9C334.767 20.3 336.1 19.9667 336.9 19.3C337.7 18.6333 338.1 17.6333 338.1 16.3C338.1 14.8333 337.666 13.7667 336.8 13.1C335.933 12.4333 334.533 12.1 332.6 12.1H328.4V20.3ZM328.4 25.9V34.4H334C335.533 34.4 336.733 34.0667 337.6 33.4C338.4 32.6667 338.8 31.6667 338.8 30.4C338.8 27.4 337.333 25.9 334.4 25.9H328.4Z" fill="black"/>
<path d="M374.1 26H360.6V34.5H376.5V41.1H352.1V5.5H376.6V12.1H360.6V19.6H374.1V26Z" fill="black"/>
<path d="M40.3999 0L37.1001 6.7H3.7002L0.399902 0H40.3999Z" fill="black"/>
<path d="M35.3999 50H25.3999L50.3999 0H60.3999L35.3999 50Z" fill="black"/>
<path d="M35.3999 50H25.3999L0.399902 0H10.3999L35.3999 50Z" fill="black"/>
<path d="M40.3999 0L37.1001 6.7L25.3999 30L20.3999 20L27.1001 6.7L30.3999 0H40.3999Z" fill="black"/>
</svg>
