<svg xmlns="http://www.w3.org/2000/svg" width="12.399" height="15.314" viewBox="0 0 12.399 15.314">
  <g id="profile" transform="translate(0.75 0.75)">
    <circle id="Ellipse_758" data-name="Ellipse 758" cx="3.434" cy="3.434" r="3.434" transform="translate(2.013 0)" fill="none" stroke="#000" stroke-linecap="round" stroke-linejoin="round" stroke-width="1.5"/>
    <path id="Path_131904" data-name="Path 131904" d="M0,15.353a1.592,1.592,0,0,1,.158-.7,2.9,2.9,0,0,1,2.026-1.164,12.057,12.057,0,0,1,1.684-.237,17.994,17.994,0,0,1,3.151,0,12.2,12.2,0,0,1,1.684.237,2.8,2.8,0,0,1,2.026,1.164,1.631,1.631,0,0,1,0,1.4A2.768,2.768,0,0,1,8.7,17.214a11.3,11.3,0,0,1-1.684.243,18.558,18.558,0,0,1-2.565.04,2.917,2.917,0,0,1-.585-.04,11.079,11.079,0,0,1-1.677-.243A2.781,2.781,0,0,1,.158,16.057,1.638,1.638,0,0,1,0,15.353Z" transform="translate(0 -3.71)" fill="none" stroke="#000" stroke-linecap="round" stroke-linejoin="round" stroke-width="1.5" fill-rule="evenodd"/>
  </g>
</svg>
