<svg xmlns="http://www.w3.org/2000/svg" width="18.356" height="18.366" viewBox="0 0 18.356 18.366">
  <g id="worlwide_1_" data-name="worlwide (1)" transform="translate(0.1 0.1)" opacity="0.5">
    <g id="Group_11" data-name="Group 11" transform="translate(0)">
      <path id="Path_54" data-name="Path 54" d="M15.635,2.664A9.016,9.016,0,0,0,9.339.006C9.3,0,9.256,0,9.216,0s-.081,0-.123.006A9.077,9.077,0,0,0,2.8,15.5a9.016,9.016,0,0,0,6.3,2.657c.041,0,.083.006.123.006s.081,0,.123-.006a9.077,9.077,0,0,0,6.3-15.5ZM3.56,3.427A7.955,7.955,0,0,1,6.966,1.4,8.666,8.666,0,0,0,6.14,2.536a10.753,10.753,0,0,0-.858,1.736H2.825A8.115,8.115,0,0,1,3.56,3.427ZM2.137,5.351H4.918a13.542,13.542,0,0,0-.5,3.192H1.235A7.936,7.936,0,0,1,2.137,5.351Zm0,7.464a7.935,7.935,0,0,1-.9-3.192h3.18a13.542,13.542,0,0,0,.5,3.192ZM3.56,14.739a8.1,8.1,0,0,1-.735-.845H5.281A10.75,10.75,0,0,0,6.14,15.63a8.666,8.666,0,0,0,.826,1.132A7.956,7.956,0,0,1,3.56,14.739Zm5.116,2.126a5.824,5.824,0,0,1-1.618-1.8,9.474,9.474,0,0,1-.61-1.169H8.676v2.97Zm0-4.05H6.044A12.35,12.35,0,0,1,5.5,9.622H8.676Zm0-4.272H5.5a12.346,12.346,0,0,1,.548-3.192H8.676V8.543Zm0-4.272H6.448A9.474,9.474,0,0,1,7.058,3.1,5.823,5.823,0,0,1,8.676,1.3v2.97Zm7.618,1.079a7.935,7.935,0,0,1,.9,3.192h-3.18a13.541,13.541,0,0,0-.5-3.192ZM14.872,3.427a8.115,8.115,0,0,1,.735.845H13.151a10.75,10.75,0,0,0-.858-1.736A8.663,8.663,0,0,0,11.466,1.4,7.956,7.956,0,0,1,14.872,3.427ZM9.755,1.3a5.824,5.824,0,0,1,1.618,1.8,9.474,9.474,0,0,1,.61,1.169H9.756V1.3Zm0,4.05h2.632a12.347,12.347,0,0,1,.548,3.192H9.755Zm3.181,4.272a12.346,12.346,0,0,1-.548,3.192H9.755V9.622ZM9.755,16.864v-2.97h2.228a9.475,9.475,0,0,1-.61,1.169A5.823,5.823,0,0,1,9.755,16.864Zm5.116-2.126a7.956,7.956,0,0,1-3.406,2.023,8.666,8.666,0,0,0,.826-1.132,10.753,10.753,0,0,0,.858-1.736h2.456A8.111,8.111,0,0,1,14.872,14.739Zm1.423-1.924H13.514a13.54,13.54,0,0,0,.5-3.192H17.2A7.936,7.936,0,0,1,16.295,12.815Z" transform="translate(-0.138)" stroke="#000" stroke-width="0.2"/>
    </g>
  </g>
</svg>
