<svg id="Link-Icon" xmlns="http://www.w3.org/2000/svg" width="24" height="24" viewBox="0 0 24 24">
  <path id="Vector" d="M0,0H24V24H0Z" fill="none"/>
  <path id="Vector-2" data-name="Vector" d="M14.52,11.622l-1.414-1.414L14.52,8.794A4,4,0,0,0,8.863,3.137L7.449,4.551,6.035,3.137,7.449,1.723a6,6,0,0,1,8.485,8.485L14.52,11.622Zm-2.829,2.829-1.414,1.414A6,6,0,1,1,1.792,7.38L3.206,5.966,4.62,7.38,3.206,8.794a4,4,0,0,0,5.657,5.657l1.414-1.414Zm0-9.9,1.415,1.415-7.071,7.07L4.62,11.622l7.071-7.07Z" transform="translate(3.137 3.206)" fill="#b8babf"/>
</svg>
