<?xml version="1.0" encoding="utf-8"?>
<!-- Generator: Adobe Illustrator 25.0.1, SVG Export Plug-In . SVG Version: 6.00 Build 0)  -->
<svg version="1.1" id="Layer_1" xmlns="http://www.w3.org/2000/svg" xmlns:xlink="http://www.w3.org/1999/xlink" x="0px" y="0px"
	 viewBox="0 0 609.8 317.2" style="enable-background:new 0 0 609.8 317.2;" xml:space="preserve">
<style type="text/css">
	.st0{fill:#000000;}
</style>
<g>
	<g>
		<g>
			<path class="st0" d="M17.1,292.1v24.1H0v-71.1h28.4c5.4,0,10.2,1,14.4,3c4.2,2,7.4,4.9,9.7,8.5s3.4,7.9,3.4,12.6
				c0,6.9-2.5,12.5-7.4,16.6c-5,4.2-11.8,6.2-20.4,6.2H17.1z M17.1,278.8h11.2c3.3,0,5.9-0.8,7.6-2.5c1.7-1.7,2.6-4,2.6-7
				c0-3.3-0.9-6-2.7-8c-1.8-2-4.2-3-7.3-3H17.1V278.8z"/>
			<path class="st0" d="M125.3,282.1c0,6.9-1.3,13.1-3.9,18.4c-2.6,5.3-6.2,9.4-11,12.3s-10.1,4.3-16.2,4.3s-11.4-1.4-16.1-4.2
				s-8.3-6.8-11-11.9c-2.6-5.2-4-11.1-4.1-17.8v-4c0-7,1.3-13.1,3.8-18.4c2.6-5.3,6.2-9.4,11-12.3c4.8-2.9,10.2-4.3,16.3-4.3
				c6,0,11.4,1.4,16.1,4.3c4.7,2.9,8.4,6.9,11,12.2c2.6,5.3,3.9,11.4,4,18.2V282.1z M107.9,279.1c0-7.1-1.2-12.4-3.5-16.1
				c-2.4-3.7-5.7-5.5-10.1-5.5c-8.6,0-13.1,6.4-13.6,19.3l0,5.2c0,7,1.2,12.3,3.5,16.1c2.3,3.7,5.7,5.6,10.3,5.6
				c4.3,0,7.7-1.8,10-5.5s3.5-9,3.6-15.9V279.1z"/>
			<path class="st0" d="M170.8,297.3c0-2.5-0.9-4.5-2.7-5.9c-1.8-1.4-4.9-2.8-9.4-4.3c-4.5-1.5-8.1-2.9-10.9-4.3
				c-9.2-4.5-13.8-10.7-13.8-18.7c0-3.9,1.1-7.4,3.4-10.4s5.5-5.4,9.7-7s8.9-2.5,14.2-2.5c5.1,0,9.7,0.9,13.7,2.7s7.2,4.4,9.4,7.8
				s3.4,7.2,3.4,11.5h-17.1c0-2.9-0.9-5.1-2.7-6.7c-1.8-1.6-4.2-2.4-7.2-2.4c-3.1,0-5.5,0.7-7.3,2c-1.8,1.4-2.7,3.1-2.7,5.2
				c0,1.8,1,3.5,2.9,5s5.4,3,10.3,4.6c4.9,1.6,9,3.3,12.1,5.1c7.7,4.4,11.5,10.5,11.5,18.3c0,6.2-2.3,11.1-7,14.6
				s-11.1,5.3-19.3,5.3c-5.8,0-11-1-15.6-3.1c-4.7-2.1-8.2-4.9-10.5-8.5c-2.4-3.6-3.5-7.7-3.5-12.4h17.2c0,3.8,1,6.6,3,8.4
				c2,1.8,5.2,2.7,9.6,2.7c2.8,0,5.1-0.6,6.7-1.8C170,301.2,170.8,299.5,170.8,297.3z"/>
			<path class="st0" d="M252.5,258.3h-21.3v57.9h-17.1v-57.9h-20.9v-13.2h59.4V258.3z"/>
			<path class="st0" d="M303.9,286h-27v17h31.8v13.2h-49v-71.1h49.1v13.2h-31.9v15h27V286z"/>
			<path class="st0" d="M342.1,291.1h-9.3v25.1h-17.1v-71.1h28c8.4,0,15,1.9,19.8,5.6c4.8,3.7,7.1,9,7.1,15.9c0,4.9-1,9-3,12.3
				s-5.1,5.9-9.4,7.9l14.8,28.7v0.7h-18.4L342.1,291.1z M332.9,277.9h10.8c3.3,0,5.7-0.9,7.3-2.6c1.6-1.7,2.5-4.1,2.5-7.2
				s-0.8-5.5-2.5-7.2c-1.7-1.7-4.1-2.6-7.3-2.6h-10.8V277.9z"/>
			<path class="st0" d="M427.6,296.9l14.2-51.8h19.1L437,316.2h-18.8l-23.7-71.1h19L427.6,296.9z"/>
			<path class="st0" d="M484.4,316.2h-17.1v-71.1h17.1V316.2z"/>
			<path class="st0" d="M496.3,316.2v-71.1h25.5c9.1,0,16.1,1.7,20.9,5c4.8,3.4,7.2,8.2,7.2,14.6c0,3.7-0.8,6.8-2.5,9.4
				c-1.7,2.6-4.2,4.5-7.5,5.8c3.7,1,6.6,2.8,8.5,5.5c2,2.7,3,5.9,3,9.8c0,7-2.2,12.2-6.6,15.7c-4.4,3.5-10.9,5.3-19.6,5.3H496.3z
				 M513.4,274.7h8.9c3.7,0,6.4-0.7,8-2.1c1.6-1.3,2.4-3.3,2.4-5.9c0-3-0.9-5.2-2.6-6.5c-1.7-1.3-4.5-2-8.3-2h-8.4V274.7z
				 M513.4,286v17h11.2c3.1,0,5.5-0.7,7.1-2.1s2.5-3.4,2.5-6c0-5.9-2.9-8.9-8.8-8.9H513.4z"/>
			<path class="st0" d="M604.9,286h-27v17h31.8v13.2h-49v-71.1h49.1v13.2h-31.9v15h27V286z"/>
		</g>
	</g>
	<g>
		<polygon class="st0" points="343,0 329.7,26.7 196.3,26.7 183,0 		"/>
		<polygon class="st0" points="323,200 283,200 383,0 423,0 		"/>
		<polygon class="st0" points="323,200 283,200 183,0 223,0 		"/>
		<polygon class="st0" points="343,0 329.7,26.7 283,120 263,80 289.7,26.7 303,0 		"/>
	</g>
</g>
</svg>
