<svg xmlns="http://www.w3.org/2000/svg" width="15.504" height="15.531" viewBox="0 0 15.504 15.531">
  <g id="logout" transform="translate(-2.75 -2.75)">
    <path id="Path_157456" data-name="Path 157456" d="M19.432,11.006c-.084-.084-.084-.167-.167-.251L16.76,8.251A.827.827,0,0,0,15.591,9.42l1.086,1.086H12.835a.835.835,0,1,0,0,1.67h3.841l-1.086,1.086a.807.807,0,0,0,0,1.169.807.807,0,0,0,1.169,0l2.505-2.505c.084-.084.167-.167.167-.251a.922.922,0,0,0,0-.668Z" transform="translate(-1.484 -0.825)" stroke="#000" stroke-width="0.5"/>
    <path id="Path_157457" data-name="Path 157457" d="M13.438,15.61a6.093,6.093,0,0,1-2.923.752,5.846,5.846,0,0,1,0-11.691,6.093,6.093,0,0,1,2.923.752.86.86,0,0,0,.835-1.5A8.325,8.325,0,0,0,10.516,3a7.516,7.516,0,1,0,3.758,14.029.925.925,0,0,0,.334-1.169A.9.9,0,0,0,13.438,15.61Z" transform="translate(0 0)" stroke="#000" stroke-width="0.5"/>
  </g>
</svg>
