<svg id="Layer_1" data-name="Layer 1" xmlns="http://www.w3.org/2000/svg" viewBox="0 0 48.72 60"><defs><style>.cls-1{fill:#ed1c24;}</style></defs><path class="cls-1" d="M31.29,0a14.15,14.15,0,0,1,2.55,1.08A5.35,5.35,0,0,1,36.17,5.8c0,.47,0,.94,0,1.49h.66c2.07,0,4.14,0,6.21,0A5.36,5.36,0,0,1,45.4,17.59a.88.88,0,0,0-.66,1q0,16.74,0,33.49a8.13,8.13,0,0,1-1.36,4.82A6.8,6.8,0,0,1,37.64,60c-2,0-4.1,0-6.15,0-6.68,0-13.36,0-20,0A7.26,7.26,0,0,1,4,52.69c-.07-3.5,0-7,0-10.48Q4,30.32,4,18.43a.68.68,0,0,0-.55-.78A5.35,5.35,0,0,1,0,12,5.26,5.26,0,0,1,4.85,7.38c1.81-.11,3.63-.07,5.44-.09h2.22c0-.81.05-1.6.13-2.39A5.43,5.43,0,0,1,17.2.09,1.43,1.43,0,0,0,17.47,0ZM6.8,18v.53q0,16.83,0,33.67a7.68,7.68,0,0,0,.09,1.17,4.33,4.33,0,0,0,4.36,3.79H37.5a4.12,4.12,0,0,0,2.93-1.12,5.06,5.06,0,0,0,1.5-3.92q0-16.76,0-33.51V18Zm17.54-2.84H42.73c.31,0,.63,0,.94,0a2.44,2.44,0,0,0,2.19-2.29,2.47,2.47,0,0,0-1.81-2.61,5,5,0,0,0-1.22-.12H5.88a5.81,5.81,0,0,0-.93.06,2.51,2.51,0,0,0-2.1,2.28A2.46,2.46,0,0,0,4.51,15a4.61,4.61,0,0,0,1.39.17Zm9-7.91a19.74,19.74,0,0,0,0-2,2.58,2.58,0,0,0-2.58-2.39q-6.36,0-12.71,0A2.56,2.56,0,0,0,15.45,5a15,15,0,0,0,0,2.23Z"/><path class="cls-1" d="M17.48,36.44v12.7a5.82,5.82,0,0,1,0,.59,1.38,1.38,0,0,1-2.74.17,3.45,3.45,0,0,1-.05-.64q0-12.85,0-25.7c0-1.2.55-1.85,1.49-1.8a1.37,1.37,0,0,1,1.31,1.39c0,.57,0,1.13,0,1.7Z"/><path class="cls-1" d="M23,36.37c0-4.31,0-8.63,0-12.94,0-1,.46-1.59,1.26-1.66a1.32,1.32,0,0,1,1.47,1.05,3.7,3.7,0,0,1,.07.81q0,12.79,0,25.58a3.65,3.65,0,0,1-.08.81,1.36,1.36,0,0,1-1.31,1,1.35,1.35,0,0,1-1.33-1,3.14,3.14,0,0,1-.08-.81C23,45,23,40.66,23,36.37Z"/><path class="cls-1" d="M31.26,36.43V23.62c0-1.22.47-1.85,1.37-1.87s1.44.66,1.44,1.88V49.21c0,1.19-.49,1.85-1.39,1.86s-1.42-.64-1.42-1.88Z"/></svg>