<svg id="Layer_1" data-name="Layer 1" xmlns="http://www.w3.org/2000/svg" viewBox="0 0 59.89 60"><defs><style>.cls-1{fill:#111526;}</style></defs><path class="cls-1" d="M0,15.23a15.7,15.7,0,0,1,1-2.48A6,6,0,0,1,6.3,9.63c8.6,0,17.19,0,25.79,0A1.76,1.76,0,1,1,32,13.12H6.87q-3.36,0-3.36,3.39V53.13c0,2.21,1.14,3.35,3.35,3.35h36.6a3,3,0,0,0,3.32-3.31v-25a4.72,4.72,0,0,1,0-.76,1.75,1.75,0,0,1,3.47.27c0,.65,0,1.29,0,1.94,0,7.85,0,15.7,0,23.55a6.52,6.52,0,0,1-5.48,6.7c-.06,0-.1,0-.15.08H5.61a2,2,0,0,0-.26-.1,6.35,6.35,0,0,1-5-4.41C.18,55.13.1,54.75,0,54.38Z"/><path class="cls-1" d="M53.1,0a5.73,5.73,0,0,1,3,1.91c.8.85,1.65,1.65,2.47,2.49a4.1,4.1,0,0,1,0,6Q45.5,23.55,32.36,36.65a3.23,3.23,0,0,1-1.53.74c-2.55.55-5.11,1-7.67,1.55A1.75,1.75,0,0,1,21,36.78c.52-2.66,1-5.32,1.6-8a2.59,2.59,0,0,1,.64-1.21Q36.37,14.43,49.5,1.28A5.56,5.56,0,0,1,51.81,0ZM47.39,8.23a4.36,4.36,0,0,1-.41.55c-6.46,6.48-12.9,13-19.4,19.4A6,6,0,0,0,25.52,32,29.61,29.61,0,0,1,25,34.94a2.86,2.86,0,0,0,.37,0c1.51-.3,3-.59,4.52-.92a1.48,1.48,0,0,0,.66-.44L51.19,12.87a2.38,2.38,0,0,1,.52-.31ZM54.2,9.86l1.93-2a.58.58,0,0,0,0-.92c-1.08-1.1-2.16-2.2-3.28-3.26a.78.78,0,0,0-.75-.05c-.73.66-1.41,1.39-2.07,2.07Z"/></svg>