<svg width="135" height="242" viewBox="0 0 135 242" fill="none" xmlns="http://www.w3.org/2000/svg">
<path d="M38.4289 208.245H59.2014V236.807L56.6048 242H33.2357C31.6778 242 30.6392 240.961 30.6392 239.403V231.614C30.6392 227.979 33.2357 224.603 36.8709 224.084L38.4289 223.824V208.245Z" fill="#A7A7A7" fill-opacity="0.63"/>
<path d="M35.8326 62.3176V31.1588C35.8326 14.0215 49.8541 0 66.9914 0C84.1287 0 98.1502 14.0215 98.1502 31.1588V62.3176C110.354 103.863 122.298 145.667 134.502 187.212C132.425 188.511 126.193 192.406 117.365 191.627C111.133 191.107 106.979 188.511 104.901 187.212C103.343 188.251 98.6695 191.627 91.6588 191.627C84.3884 191.627 79.4549 188.251 78.1566 187.212C76.5987 188.511 71.6652 191.886 64.3948 191.627C57.9034 191.627 53.2296 188.77 51.6717 187.472C50.1137 188.511 45.4399 191.627 38.6888 191.627C32.1974 191.627 27.5236 188.77 25.9657 187.472C24.4077 188.511 19.7339 191.627 13.2425 191.627C6.23176 191.627 1.55794 188.251 0 187.212C11.4249 145.667 23.6288 103.863 35.8326 62.3176Z" fill="#A7A7A7" fill-opacity="0.63"/>
<path d="M90.1006 208.245H69.3281V239.403C69.3281 240.961 70.3668 242 71.9247 242H100.487C102.045 242 103.083 240.961 103.083 239.403V231.614C103.083 227.979 100.487 224.603 96.8517 224.084L90.1006 223.824V208.245Z" fill="#A7A7A7" fill-opacity="0.63"/>
<path d="M75.3006 27.9657C75.3006 29.7833 73.7427 31.0816 72.1847 31.0816C70.3671 31.0816 69.0688 29.5237 69.0688 27.9657C69.0688 26.1481 70.6268 24.8499 72.1847 24.8499C74.0023 24.8499 75.3006 26.4078 75.3006 27.9657Z" fill="white"/>
<path d="M88.8026 27.9657C88.8026 29.7833 87.2446 31.0816 85.6867 31.0816C83.8691 31.0816 82.5708 29.5237 82.5708 27.9657C82.5708 26.1481 84.1287 24.8499 85.6867 24.8499C87.2446 24.8499 88.8026 26.4078 88.8026 27.9657Z" fill="white"/>
</svg>
