<svg xmlns="http://www.w3.org/2000/svg" width="14.287" height="16.546" viewBox="0 0 14.287 16.546">
  <path id="notification_4_" data-name="notification (4)" d="M0,8.866V8.7A2.708,2.708,0,0,1,.453,7.333a3.663,3.663,0,0,0,.9-1.74c0-.5,0-1.01.044-1.511C1.621,1.669,4.007,0,6.364,0h.058C8.78,0,11.166,1.669,11.4,4.082c.044.5,0,1.01.036,1.511a3.727,3.727,0,0,0,.9,1.747A2.638,2.638,0,0,1,12.786,8.7v.158a2.682,2.682,0,0,1-.635,1.8,3.388,3.388,0,0,1-2.146,1.031,33.9,33.9,0,0,1-7.232,0A3.426,3.426,0,0,1,.628,10.656,2.711,2.711,0,0,1,0,8.866ZM4.554,14.18a2.321,2.321,0,0,0,3.226.38,2.173,2.173,0,0,0,.394-.38" transform="translate(0.75 0.75)" fill="none" stroke="#000" stroke-linecap="round" stroke-linejoin="round" stroke-width="1.5" fill-rule="evenodd"/>
</svg>
