<svg xmlns="http://www.w3.org/2000/svg" width="24" height="24" viewBox="0 0 24 24">
  <g id="Password-Icon" transform="translate(-60 -371)">
    <path id="Path_" data-name="Path " d="M0,0H24V24H0Z" transform="translate(60 371)" fill="none"/>
    <path id="Password-Icon-2" data-name="Password-Icon" d="M9,0l8.217,1.826A1,1,0,0,1,18,2.8v9.987a6,6,0,0,1-2.672,4.992L9,22,2.672,17.781A6,6,0,0,1,0,12.79V2.8a1,1,0,0,1,.783-.976ZM9,2.049,2,3.6v9.185a4,4,0,0,0,1.781,3.328L9,19.6l5.219-3.48A4,4,0,0,0,16,12.79V3.6L9,2.05ZM9,6a2,2,0,0,1,1,3.732V14H8V9.732A2,2,0,0,1,9,6Z" transform="translate(63 372)" fill="#b8babf"/>
  </g>
</svg>
