<svg xmlns="http://www.w3.org/2000/svg" width="14.011" height="17.043" viewBox="0 0 14.011 17.043">
  <g id="man-user" transform="translate(-41.895)" opacity="0.5">
    <g id="Path_3" data-name="Path 3" transform="translate(-59.603)" fill="none">
      <path d="M108.5,8.3a4.062,4.062,0,0,0,3.969-4.149C112.473,1.857,111.89,0,108.5,0s-3.969,1.857-3.969,4.149A4.062,4.062,0,0,0,108.5,8.3Z" stroke="none"/>
      <path d="M 108.5041809082031 6.797415733337402 C 109.8656234741211 6.797415733337402 110.9732360839844 5.60921573638916 110.9732360839844 4.148725986480713 C 110.9732360839844 3.148685932159424 110.8390197753906 2.485476016998291 110.5629119873047 2.121206045150757 C 110.2504730224609 1.709005951881409 109.5578079223633 1.499995946884155 108.5041809082031 1.499995946884155 C 107.4505310058594 1.499995946884155 106.7578506469727 1.709015965461731 106.4453735351562 2.121235847473145 C 106.1692276000977 2.485535860061646 106.0350036621094 3.148725986480713 106.0350036621094 4.148725986480713 C 106.0350036621094 5.60921573638916 107.1426696777344 6.797415733337402 108.5041809082031 6.797415733337402 M 108.5041809082031 8.297415733337402 C 106.3121185302734 8.297415733337402 104.5350036621094 6.439985752105713 104.5350036621094 4.148725986480713 C 104.5350036621094 1.857415914535522 105.1185836791992 -4.04067986892187e-06 108.5041809082031 -4.04067986892187e-06 C 111.8898086547852 -4.04067986892187e-06 112.4732360839844 1.857415914535522 112.4732360839844 4.148725986480713 C 112.4732360839844 6.439985752105713 110.6961364746094 8.297415733337402 108.5041809082031 8.297415733337402 Z" stroke="none" fill="#000"/>
    </g>
    <g id="Path_4" data-name="Path 4" transform="translate(0 -285.735)" fill="none">
      <path d="M41.9,300.444c0-.14,0-.039,0,0Z" stroke="none"/>
      <path d="M 41.89581680297852 300.4436950683594 C 41.8946533203125 300.4043273925781 41.89524841308594 300.3042602539062 41.89581680297852 300.4436950683594 Z" stroke="none" fill="#000"/>
    </g>
    <g id="Path_5" data-name="Path 5" transform="translate(-252.18 -286.795)" fill="none">
      <path d="M308.085,301.613c0-.038,0-.265,0,0Z" stroke="none"/>
      <path d="M 308.0850219726562 301.6130065917969 C 308.0852355957031 301.5179443359375 308.0855407714844 301.4861145019531 308.0857238769531 301.4861145019531 C 308.0860900878906 301.4861145019531 308.086181640625 301.5884704589844 308.0850219726562 301.6130065917969 Z" stroke="none" fill="#000"/>
    </g>
    <g id="Path_6" data-name="Path 6" transform="translate(-0.012 -169.048)" fill="none">
      <path d="M55.91,183.589c-.069-3.991-.635-5.129-4.966-5.849a3.24,3.24,0,0,1-4.062,0c-4.284.712-4.884,1.833-4.963,5.719-.006.317-.009.334-.011.3,0,.069,0,.2,0,.419,0,0,1.031,1.915,7,1.915s7-1.915,7-1.915c0-.143,0-.242,0-.31A2.38,2.38,0,0,1,55.91,183.589Z" stroke="none"/>
      <path d="M 48.91291046142578 184.5901184082031 C 52.3856086730957 184.5901184082031 53.87027740478516 183.9104614257812 54.40880966186523 183.5553436279297 C 54.38034439086914 182.0283508300781 54.27204132080078 180.9027404785156 53.84918212890625 180.3687438964844 C 53.50379180908203 179.9325561523438 52.71516799926758 179.6065521240234 51.32489776611328 179.3329315185547 C 50.80336761474609 179.6469421386719 50.01137161254883 179.9555511474609 48.91291046142578 179.9555511474609 C 47.81437301635742 179.9555511474609 47.02236175537109 179.6469116210938 46.50082015991211 179.3329010009766 C 45.12209320068359 179.6040954589844 44.33654022216797 179.9260711669922 43.9870491027832 180.3556976318359 C 43.5571403503418 180.8841857910156 43.44878005981445 181.9906768798828 43.41833114624023 183.4896240234375 C 43.41785430908203 183.5130157470703 43.41739273071289 183.5348968505859 43.41694641113281 183.5553436279297 C 43.95536041259766 183.9104156494141 45.43989562988281 184.5901184082031 48.91291046142578 184.5901184082031 M 48.91291046142578 186.0901184082031 C 42.93976211547852 186.0901184082031 41.9085807800293 184.1755981445312 41.9085807800293 184.1755981445312 C 41.9085807800293 183.9529571533203 41.90827941894531 183.8252563476562 41.90800857543945 183.7562561035156 C 41.90917587280273 183.7930297851562 41.91216659545898 183.7765808105469 41.91864013671875 183.4590301513672 C 41.99758911132812 179.5725708007812 42.59801864624023 178.4520874023438 46.88204193115234 177.739990234375 C 46.88204193115234 177.739990234375 47.49184036254883 178.4555511474609 48.91291046142578 178.4555511474609 C 50.33399200439453 178.4555511474609 50.94367980957031 177.739990234375 50.94367980957031 177.739990234375 C 55.27495956420898 178.4599304199219 55.84096908569336 179.5972900390625 55.90964889526367 183.5886993408203 C 55.91402053833008 183.8439483642578 55.91630554199219 183.8881988525391 55.9174919128418 183.8654327392578 C 55.91733932495117 183.93310546875 55.91722106933594 184.0325622558594 55.91722106933594 184.1755981445312 C 55.91722106933594 184.1755981445312 54.88595199584961 186.0901184082031 48.91291046142578 186.0901184082031 Z" stroke="none" fill="#000"/>
    </g>
  </g>
</svg>
