<svg xmlns="http://www.w3.org/2000/svg" width="17.135" height="15.713" viewBox="0 0 17.135 15.713">
  <path id="_30._Crown" data-name="30. Crown" d="M17.135,6.709a2.142,2.142,0,0,0-4.284,0,2.116,2.116,0,0,0,.044.428l-1.178.705L10.105,4.625a2.142,2.142,0,1,0-3.076,0L5.418,7.843,4.24,7.138a2.116,2.116,0,0,0,.044-.428,2.142,2.142,0,1,0-2.63,2.08l.428,3.862a1.428,1.428,0,0,0-.654,1.2v1.428A1.428,1.428,0,0,0,2.856,16.7H14.279a1.428,1.428,0,0,0,1.428-1.428V13.849a1.428,1.428,0,0,0-.655-1.2L15.48,8.79a2.142,2.142,0,0,0,1.655-2.08ZM14.993,6a.714.714,0,1,1-.714.714A.714.714,0,0,1,14.993,6ZM8.567,2.426a.714.714,0,1,1-.714.714A.714.714,0,0,1,8.567,2.426ZM5.712,9.565a.73.73,0,0,0,.2-.029.714.714,0,0,0,.44-.366L8.312,5.256a2.137,2.137,0,0,0,.256.026,2.137,2.137,0,0,0,.256-.026l1.961,3.915a.714.714,0,0,0,.44.366.726.726,0,0,0,.2.029.714.714,0,0,0,.367-.1l1.85-1.107a2.165,2.165,0,0,0,.422.273l-.422,3.792H3.495L3.07,8.629a2.165,2.165,0,0,0,.422-.273l1.85,1.107A.714.714,0,0,0,5.712,9.565ZM2.142,6a.714.714,0,1,1-.714.714A.714.714,0,0,1,2.142,6Zm.714,9.281V13.849H14.279v1.428Z" transform="translate(0 -0.992)"/>
</svg>
