<svg xmlns="http://www.w3.org/2000/svg" width="15.041" height="11.013" viewBox="0 0 15.041 11.013">
  <g id="crown_1_" data-name="crown (1)" transform="translate(0.001 -7.41)">
    <path id="Path_157458" data-name="Path 157458" d="M14.171,9.736a.873.873,0,0,0-.791.485.8.8,0,0,0,.136.887,5.744,5.744,0,0,1-1.756,1.469,1.706,1.706,0,0,1-1.81-.237A7.379,7.379,0,0,1,7.966,9.387a1.034,1.034,0,0,0,.639-.943,1.086,1.086,0,0,0-2.169,0,1.029,1.029,0,0,0,.637.94,7.426,7.426,0,0,1-1.981,2.953,1.7,1.7,0,0,1-1.81.24,5.8,5.8,0,0,1-1.758-1.469.8.8,0,0,0,.041-1.039A.9.9,0,0,0,.509,9.811a.819.819,0,0,0-.49.93.861.861,0,0,0,.85.653.4.4,0,0,0,.073,0l1.483,5.987H12.617L14.1,11.389a.4.4,0,0,0,.073,0,.829.829,0,1,0,0-1.657ZM7.52,16.357a1.525,1.525,0,1,1,1.6-1.522A1.565,1.565,0,0,1,7.52,16.357Z" transform="translate(0)" fill="#f3b508"/>
    <path id="Path_157459" data-name="Path 157459" d="M9.18,52.9H20.112v.828H9.18Z" transform="translate(-7.125 -35.305)" fill="#f3b508"/>
  </g>
</svg>
