<svg xmlns="http://www.w3.org/2000/svg" width="18.468" height="20.48" viewBox="0 0 18.468 20.48">
  <g id="security" transform="translate(-9.626 -7.156)" opacity="0.5">
    <path id="Path_131913" data-name="Path 131913" d="M18.86,27.437a.61.61,0,0,1-.185-.029c-8.319-2.635-9.125-6.853-8.335-9.928s.959-4.893-.335-6.187a.611.611,0,0,1,.006-.87l2.973-2.89a.611.611,0,0,1,1,.24A2.18,2.18,0,0,0,16.074,9.26,2.653,2.653,0,0,0,18.3,7.733a.614.614,0,0,1,.562-.371h0a.609.609,0,0,1,.561.375A2.654,2.654,0,0,0,21.646,9.26a2.183,2.183,0,0,0,2.086-1.487.611.611,0,0,1,1-.24l2.973,2.89a.611.611,0,0,1,.006.87c-1.294,1.294-1.129,3.1-.336,6.187s-.015,7.293-8.335,9.928a.61.61,0,0,1-.185.029ZM11.278,10.9c1.385,1.822.935,4.207.246,6.888-.947,3.69,1.52,6.515,7.335,8.4,5.815-1.884,8.283-4.71,7.335-8.4-.689-2.681-1.139-5.066.246-6.888l-1.97-1.915a3.226,3.226,0,0,1-2.893,1.5A3.721,3.721,0,0,1,18.86,9.1a3.721,3.721,0,0,1-2.719,1.382,3.259,3.259,0,0,1-2.893-1.5Z" transform="translate(0 0)" stroke="#000" stroke-width="0.4"/>
    <path id="Path_131914" data-name="Path 131914" d="M29.461,28.543A1.745,1.745,0,1,1,31.206,26.8,1.745,1.745,0,0,1,29.461,28.543Zm0-2.268a.523.523,0,1,0,.523.523A.523.523,0,0,0,29.461,26.275Z" transform="translate(-10.601 -10.484)" stroke="#000" stroke-width="0.4"/>
    <path id="Path_131915" data-name="Path 131915" d="M31.111,35.459a.611.611,0,0,1-.611-.611v-2.57a.611.611,0,0,1,1.222,0v2.57A.611.611,0,0,1,31.111,35.459Z" transform="translate(-12.251 -14.404)" stroke="#000" stroke-width="0.4"/>
  </g>
</svg>
