<svg xmlns="http://www.w3.org/2000/svg" width="16.26" height="17.218" viewBox="0 0 16.26 17.218">
  <g id="setting_2_" data-name="setting (2)" transform="translate(0.083 -0.028)">
    <path id="Path_157455" data-name="Path 157455" d="M15.112,5.149,14.6,4.266a1.564,1.564,0,0,0-2.133-.576h0a1.557,1.557,0,0,1-2.133-.554,1.5,1.5,0,0,1-.21-.748h0A1.564,1.564,0,0,0,8.562.778H7.537A1.557,1.557,0,0,0,5.98,2.342h0A1.564,1.564,0,0,1,4.416,3.884a1.5,1.5,0,0,1-.748-.21h0a1.564,1.564,0,0,0-2.133.576l-.546.9a1.564,1.564,0,0,0,.569,2.133h0a1.564,1.564,0,0,1,0,2.71h0a1.557,1.557,0,0,0-.569,2.126h0l.516.891a1.564,1.564,0,0,0,2.133.606h0a1.549,1.549,0,0,1,2.126.569,1.5,1.5,0,0,1,.21.749h0A1.564,1.564,0,0,0,7.537,16.5H8.562a1.564,1.564,0,0,0,1.564-1.557h0a1.557,1.557,0,0,1,1.564-1.564,1.594,1.594,0,0,1,.748.21h0a1.564,1.564,0,0,0,2.133-.569h0l.539-.9a1.557,1.557,0,0,0-.569-2.133h0a1.557,1.557,0,0,1-.569-2.133,1.535,1.535,0,0,1,.569-.569h0a1.564,1.564,0,0,0,.569-2.126h0Z" transform="translate(0 0)" fill="none" stroke="#000" stroke-linecap="round" stroke-linejoin="round" stroke-width="1.5" fill-rule="evenodd"/>
    <circle id="Ellipse_760" data-name="Ellipse 760" cx="2.156" cy="2.156" r="2.156" transform="translate(5.898 6.482)" fill="none" stroke="#000" stroke-linecap="round" stroke-linejoin="round" stroke-width="1.5"/>
  </g>
</svg>
