<svg xmlns="http://www.w3.org/2000/svg" width="18.038" height="18.073" viewBox="0 0 18.038 18.073">
  <path id="star_1_" data-name="star (1)" d="M21.421,14.289a1.659,1.659,0,0,1,3.078,0l1.416,3.292a.748.748,0,0,0,.6.454l3.438.388a1.779,1.779,0,0,1,.951,3.054L28.34,23.9a.8.8,0,0,0-.229.735l.709,3.532a1.7,1.7,0,0,1-2.49,1.888l-3-1.795a.718.718,0,0,0-.741,0l-3,1.794a1.7,1.7,0,0,1-2.49-1.888l.709-3.531a.8.8,0,0,0-.229-.735l-2.563-2.422a1.779,1.779,0,0,1,.951-3.055l3.438-.388a.748.748,0,0,0,.6-.454l1.416-3.292Zm2.218.4a.732.732,0,0,0-1.358,0l-1.416,3.292a1.694,1.694,0,0,1-1.357,1.029l-3.438.388a.785.785,0,0,0-.42,1.348l2.563,2.422a1.807,1.807,0,0,1,.518,1.665l-.709,3.532a.752.752,0,0,0,1.1.833l3-1.794a1.626,1.626,0,0,1,1.678,0l3,1.794a.752.752,0,0,0,1.1-.833l-.709-3.532a1.807,1.807,0,0,1,.518-1.665l2.563-2.422a.785.785,0,0,0-.419-1.348l-3.439-.388a1.694,1.694,0,0,1-1.357-1.029l-1.416-3.292Z" transform="translate(-13.941 -12.75)" stroke="#000" stroke-width="1" fill-rule="evenodd"/>
</svg>
