<svg xmlns="http://www.w3.org/2000/svg" width="16.004" height="19.984" viewBox="0 0 16.004 19.984">
  <g id="Layer_2" data-name="Layer 2" transform="translate(-3.25 -1.25)" opacity="0.5">
    <path id="Path_131905" data-name="Path 131905" d="M4.937,12.832a.684.684,0,0,1-.687-.68V3.744A2.509,2.509,0,0,1,6.768,1.25h.7A2.508,2.508,0,0,1,9.514,2.3,2.507,2.507,0,0,1,11.565,1.25h4.358A2.509,2.509,0,0,1,18.44,3.744v8.163a.687.687,0,0,1-1.373,0V3.744A1.14,1.14,0,0,0,15.922,2.61H11.565a1.142,1.142,0,0,0-1.025.631l-.413.81a.719.719,0,0,1-1.226,0l-.412-.807A1.142,1.142,0,0,0,7.463,2.61h-.7A1.14,1.14,0,0,0,5.623,3.744v8.407a.684.684,0,0,1-.687.68Z" transform="translate(-0.093 0)"/>
    <path id="Path_131906" data-name="Path 131906" d="M9.93,6.424a.68.68,0,0,1-.68-.68V3.93a.68.68,0,1,1,1.36,0V5.744A.68.68,0,0,1,9.93,6.424Z" transform="translate(-0.509 -0.186)"/>
    <path id="Path_131907" data-name="Path 131907" d="M11.744,22.145A2.5,2.5,0,0,1,9.25,19.651V16.93a.68.68,0,0,1,.68-.68h3.628a.68.68,0,0,1,.68.68v2.721a2.5,2.5,0,0,1-2.494,2.494ZM10.61,17.61v2.041a1.134,1.134,0,0,0,2.267,0V17.61Z" transform="translate(-0.492 -0.911)"/>
    <path id="Path_131908" data-name="Path 131908" d="M16.739,17.238H5.765a2.494,2.494,0,1,1,0-4.988H16.739a2.494,2.494,0,1,1,0,4.988ZM5.765,13.61a1.134,1.134,0,1,0,0,2.267H16.739a1.134,1.134,0,1,0,0-2.267Z" transform="translate(0 -0.69)"/>
  </g>
</svg>
