<svg width="71" height="71" viewBox="0 0 71 71" fill="none" xmlns="http://www.w3.org/2000/svg">
<path d="M35.5002 70.6001C28.9002 70.6001 22.4001 70.6001 15.9001 70.5001C10.0001 70.5001 5.5001 67.9002 2.4001 62.7002C1.1001 60.5002 0.500195 58.0001 0.500195 55.4001C0.433529 51.0001 0.433529 46.5668 0.500195 42.1001C0.500195 40.5001 1.4 39.3001 2.8 38.9001C4.1 38.5001 5.6 39.0002 6.3 40.2002C6.6 40.8002 6.8 41.5002 6.8 42.2002C6.9 46.5002 6.8 50.8001 6.8 55.0001C6.8 60.3001 10.7002 64.2002 16.0002 64.2002C29.0002 64.2002 41.9668 64.2002 54.9001 64.2002C60.2001 64.2002 64.1003 60.3001 64.1003 55.0001C64.1003 50.6668 64.1003 46.3335 64.1003 42.0001C64.1003 40.5001 64.9004 39.4001 66.2004 38.9001C67.5004 38.5001 68.9004 38.9001 69.7004 40.0001C70.1004 40.5001 70.4001 41.2001 70.4001 41.9001C70.4001 46.8001 70.6 51.8001 70.3 56.8001C70 63.4001 64.5001 69.2001 57.9001 70.3001C56.8334 70.4335 55.7671 70.5001 54.7004 70.5001C48.3004 70.5668 41.9002 70.6001 35.5002 70.6001Z" fill="black"/>
<path d="M32.3 11.5001C31.9 11.8001 31.7002 12.0001 31.5002 12.2001C27.3002 16.4001 23.1001 20.6001 18.9001 24.8001C18.0001 25.7001 17.0004 26.2001 15.7004 25.9001C13.4004 25.4001 12.5002 22.6001 14.0002 20.8001C14.1335 20.6001 14.3002 20.4334 14.5002 20.3001C20.6335 14.1668 26.7668 8.03343 32.9001 1.9001C34.6334 0.166764 36.3335 0.166764 38.0002 1.9001C44.2002 8.03343 50.3669 14.2001 56.5002 20.4001C57.4002 21.2001 57.9003 22.3001 57.6003 23.5001C57.0003 25.9001 54.1 26.8001 52.3 25.1001C50.9 23.8001 49.6004 22.4001 48.2004 21.1001C45.2671 18.1001 42.3 15.1001 39.3 12.1001C39.2 12.0001 39.0001 11.7001 38.9001 11.5001C38.8334 11.5668 38.7336 11.6334 38.6003 11.7001C38.6003 11.9668 38.6003 12.2334 38.6003 12.5001C38.6003 25.3668 38.6003 38.2334 38.6003 51.1001C38.6003 52.9001 37.8004 54.1001 36.2004 54.5001C34.4004 55.0001 32.4 53.7001 32.3 51.7001C32.3 51.3668 32.3 51.0334 32.3 50.7001C32.3 37.9668 32.3 25.2334 32.3 12.5001C32.3 12.3001 32.3 12.0001 32.3 11.5001Z" fill="black"/>
</svg>
