<svg xmlns="http://www.w3.org/2000/svg" width="22.904" height="21.092" viewBox="0 0 22.904 21.092">
  <path id="Path_131578" data-name="Path 131578" d="M20.388,6A6.782,6.782,0,0,0,15.3,8.356,6.782,6.782,0,0,0,10.216,6,6.149,6.149,0,0,0,4,12.216c0,4.267,3.843,7.753,9.663,13.037L15.3,26.739l1.639-1.486c5.821-5.284,9.663-8.77,9.663-13.037A6.149,6.149,0,0,0,20.388,6ZM15.421,23.58l-.119.107-.119-.107C9.809,18.7,6.26,15.482,6.26,12.216A3.869,3.869,0,0,1,10.216,8.26a4.413,4.413,0,0,1,4.029,2.667h2.108A4.428,4.428,0,0,1,20.388,8.26a3.869,3.869,0,0,1,3.956,3.956C24.344,15.482,20.795,18.7,15.421,23.58Z" transform="translate(-3.85 -5.85)" fill="#b8babf" stroke="#fff" stroke-width="0.3"/>
</svg>
