<svg xmlns="http://www.w3.org/2000/svg" width="17.284" height="21.102" viewBox="0 0 17.284 21.102">
  <g id="user" transform="translate(-2.95 -0.95)">
    <path id="Path_116599" data-name="Path 116599" d="M11.773,2.909a2.864,2.864,0,1,0,2.864,2.864A2.864,2.864,0,0,0,11.773,2.909ZM7,5.773a4.773,4.773,0,1,1,4.773,4.773A4.773,4.773,0,0,1,7,5.773Z" transform="translate(-0.181)" fill="#b8babf" stroke="#b8babf" stroke-width="0.1" fill-rule="evenodd"/>
    <path id="Path_116600" data-name="Path 116600" d="M3,19.683A6.683,6.683,0,0,1,9.683,13H13.5a6.683,6.683,0,0,1,6.683,6.683,2.864,2.864,0,0,1-2.864,2.864H5.864A2.864,2.864,0,0,1,3,19.683Zm6.683-4.773a4.773,4.773,0,0,0-4.773,4.773.955.955,0,0,0,.955.955H17.32a.955.955,0,0,0,.955-.955A4.773,4.773,0,0,0,13.5,14.909Z" transform="translate(0 -0.544)" fill="#b8babf" stroke="#b8babf" stroke-width="0.1" fill-rule="evenodd"/>
  </g>
</svg>
