<svg xmlns="http://www.w3.org/2000/svg" width="19.538" height="19.538" viewBox="0 0 19.538 19.538">
  <path id="images_1_" data-name="images (1)" d="M21.478,5H7.06A2.066,2.066,0,0,0,5,7.06V21.478a2.066,2.066,0,0,0,2.06,2.06H21.478a2.066,2.066,0,0,0,2.06-2.06V7.06A2.066,2.066,0,0,0,21.478,5ZM7.06,22.714a1.24,1.24,0,0,1-1.236-1.236V19.789l4.944-5.335,7.951,8.26Zm15.654-1.236a1.24,1.24,0,0,1-1.236,1.236H19.851l-5.932-6.179,4.573-4.758,4.223,4.552Zm0-6.365L18.8,10.891l-.021-.021c-.021,0-.021-.021-.041-.021a.072.072,0,0,0-.041-.021c-.021,0-.021-.021-.041-.021s-.021,0-.041-.021h-.247c-.021,0-.021,0-.041.021-.021,0-.021.021-.041.021s-.021.021-.041.021-.021.021-.041.021l-.021.021-4.841,5.046-2.286-2.369a.02.02,0,0,1-.021-.021c-.021-.021-.021-.021-.041-.021a.072.072,0,0,0-.041-.021c-.021,0-.021-.021-.041-.021s-.021,0-.041-.021h-.247c-.021,0-.021,0-.041.021-.021,0-.021,0-.041.021-.021,0-.021.021-.041.021s-.021.021-.041.021a.02.02,0,0,0-.021.021L5.824,18.574V7.06A1.24,1.24,0,0,1,7.06,5.824H21.478A1.24,1.24,0,0,1,22.714,7.06ZM9.532,7.472a2.06,2.06,0,1,0,2.06,2.06A2.066,2.066,0,0,0,9.532,7.472Zm0,3.3a1.236,1.236,0,1,1,1.236-1.236A1.24,1.24,0,0,1,9.532,10.767Z" transform="translate(-4.5 -4.5)" fill="#b8babf" stroke="#b8babf" stroke-width="1"/>
</svg>
