<svg xmlns="http://www.w3.org/2000/svg" width="18.675" height="19.675" viewBox="0 0 18.675 19.675">
  <g id="call_1_" data-name="call (1)" transform="translate(-2.125 -2.2)">
    <path id="Path_131748" data-name="Path 131748" d="M6.635,5.87a.411.411,0,0,0-.582,0L4.662,7.262a3.113,3.113,0,0,0-.633,3.49,18.566,18.566,0,0,0,9.22,9.219,3.113,3.113,0,0,0,3.49-.633l1.39-1.391a.411.411,0,0,0,0-.582l-1.87-1.871a.411.411,0,0,0-.476-.077l-1.038.52a3.072,3.072,0,0,1-3.546-.576L8.639,12.8a3.072,3.072,0,0,1-.575-3.546l.519-1.039a.411.411,0,0,0-.077-.474ZM4.992,4.81a1.911,1.911,0,0,1,2.7,0L9.567,6.68a1.912,1.912,0,0,1,.358,2.206l-.52,1.039A1.572,1.572,0,0,0,9.7,11.74l2.56,2.56a1.573,1.573,0,0,0,1.814.294l1.039-.52a1.911,1.911,0,0,1,2.206.358L19.19,16.3a1.911,1.911,0,0,1,0,2.7L17.8,20.4a4.613,4.613,0,0,1-5.172.938,20.067,20.067,0,0,1-9.964-9.964A4.613,4.613,0,0,1,3.6,6.2Z" fill="#8b8989" stroke="#8b8989" stroke-width="0.1" fill-rule="evenodd"/>
    <path id="Path_131749" data-name="Path 131749" d="M12.25,6A.75.75,0,0,1,13,5.25,4.75,4.75,0,0,1,17.75,10a.75.75,0,0,1-1.5,0A3.25,3.25,0,0,0,13,6.75.75.75,0,0,1,12.25,6Z" fill="#8b8989" stroke="#8b8989" stroke-width="0.1" fill-rule="evenodd"/>
    <path id="Path_131750" data-name="Path 131750" d="M13.25,3A.75.75,0,0,1,14,2.25,6.75,6.75,0,0,1,20.75,9a.75.75,0,0,1-1.5,0A5.249,5.249,0,0,0,14,3.75.75.75,0,0,1,13.25,3Z" fill="#8b8989" stroke="#8b8989" stroke-width="0.1" fill-rule="evenodd"/>
  </g>
</svg>
