<svg xmlns="http://www.w3.org/2000/svg" width="19.3" height="19.3" viewBox="0 0 19.3 19.3">
  <path id="date_2_" data-name="date (2)" d="M18.15,3.9h-1.9V2.95a.95.95,0,1,0-1.9,0V3.9H8.65V2.95a.95.95,0,0,0-1.9,0V3.9H4.85A2.85,2.85,0,0,0,2,6.75v11.4A2.85,2.85,0,0,0,4.85,21h13.3A2.85,2.85,0,0,0,21,18.15V6.75A2.85,2.85,0,0,0,18.15,3.9Zm.95,14.25a.95.95,0,0,1-.95.95H4.85a.95.95,0,0,1-.95-.95V11.5H19.1Zm0-8.55H3.9V6.75a.95.95,0,0,1,.95-.95h1.9v.95a.95.95,0,0,0,1.9,0V5.8h5.7v.95a.95.95,0,0,0,1.9,0V5.8h1.9a.95.95,0,0,1,.95.95Z" transform="translate(-1.85 -1.85)" fill="#8b8989" stroke="#fff" stroke-width="0.3"/>
</svg>
