<svg xmlns="http://www.w3.org/2000/svg" width="15.481" height="19.227" viewBox="0 0 15.481 19.227">
  <path id="document" d="M8.682,9.491h.936a.936.936,0,1,0,0-1.873H8.682a.936.936,0,1,0,0,1.873Zm0,1.873a.936.936,0,1,0,0,1.873H14.3a.936.936,0,1,0,0-1.873ZM18.981,8.5a1.227,1.227,0,0,0-.056-.253V8.161a1,1,0,0,0-.178-.262h0L13.129,2.281h0a1,1,0,0,0-.262-.178.3.3,0,0,0-.084,0,.824.824,0,0,0-.309-.1H6.809A2.809,2.809,0,0,0,4,4.809V17.918a2.809,2.809,0,0,0,2.809,2.809h9.363a2.809,2.809,0,0,0,2.809-2.809V8.5ZM13.363,5.193l2.425,2.425H14.3a.936.936,0,0,1-.936-.936Zm3.745,12.725a.936.936,0,0,1-.936.936H6.809a.936.936,0,0,1-.936-.936V4.809a.936.936,0,0,1,.936-.936h4.682V6.682A2.809,2.809,0,0,0,14.3,9.491h2.809ZM14.3,15.109H8.682a.936.936,0,0,0,0,1.873H14.3a.936.936,0,0,0,0-1.873Z" transform="translate(-3.75 -1.75)" stroke="#fff" stroke-width="0.5" opacity="0.5"/>
</svg>
