<svg xmlns="http://www.w3.org/2000/svg" width="18.078" height="13.908" viewBox="0 0 18.078 13.908">
  <path id="Path_131747" data-name="Path 131747" d="M24.228,27.308H9.65a1.559,1.559,0,0,1-1.55-1.55V15.35A1.559,1.559,0,0,1,9.65,13.8H24.228a1.559,1.559,0,0,1,1.55,1.55V25.758A1.559,1.559,0,0,1,24.228,27.308ZM9.613,14.8a.5.5,0,0,0-.517.517V25.721a.5.5,0,0,0,.517.517H24.191a.5.5,0,0,0,.517-.517V15.313a.5.5,0,0,0-.517-.517Z" transform="translate(-7.9 -13.6)" fill="#8b8989" stroke="#8b8989" stroke-width="0.4"/>
</svg>
