<svg xmlns="http://www.w3.org/2000/svg" width="18.078" height="13.908" viewBox="0 0 18.078 13.908">
  <g id="email_1_" data-name="email (1)" transform="translate(-7.9 -13.6)">
    <path id="Path_131746" data-name="Path 131746" d="M25.783,17.6l-.7-.7-6.5,6.5a2.139,2.139,0,0,1-2.989,0L9.1,16.937l-.7.7,4.835,4.835L8.4,27.308l.7.7,4.835-4.835.96.96a3.031,3.031,0,0,0,4.355,0l.96-.96,4.835,4.835.7-.7-4.835-4.835L25.783,17.6" transform="translate(-0.189 -1.956)" fill="#8b8989" stroke="#8b8989" stroke-width="0.4"/>
    <path id="Path_131747" data-name="Path 131747" d="M24.228,27.308H9.65a1.559,1.559,0,0,1-1.55-1.55V15.35A1.559,1.559,0,0,1,9.65,13.8H24.228a1.559,1.559,0,0,1,1.55,1.55V25.758A1.559,1.559,0,0,1,24.228,27.308ZM9.613,14.8a.5.5,0,0,0-.517.517V25.721a.5.5,0,0,0,.517.517H24.191a.5.5,0,0,0,.517-.517V15.313a.5.5,0,0,0-.517-.517Z" transform="translate(0 0)" fill="#8b8989" stroke="#8b8989" stroke-width="0.4"/>
  </g>
</svg>
