<svg xmlns="http://www.w3.org/2000/svg" width="18.786" height="15.165" viewBox="0 0 18.786 15.165">
  <g id="email_2_" data-name="email (2)" transform="translate(0.15 -4.25)" opacity="0.5">
    <path id="Path_131916" data-name="Path 131916" d="M15.957,19.165H2.529A2.445,2.445,0,0,1,.1,16.736V6.929A2.445,2.445,0,0,1,2.529,4.5H15.957a2.445,2.445,0,0,1,2.429,2.429V16.69A2.455,2.455,0,0,1,15.957,19.165ZM2.529,5.417A1.536,1.536,0,0,0,.971,6.929V16.69A1.526,1.526,0,0,0,2.483,18.2H15.911a1.526,1.526,0,0,0,1.512-1.512V6.929a1.526,1.526,0,0,0-1.512-1.512Z" transform="translate(0 0)" fill="#010202" stroke="#000" stroke-width="0.5"/>
    <path id="Path_131917" data-name="Path 131917" d="M10.009,14.7a2.426,2.426,0,0,1-1.768-.825L4.51,9.4A.39.39,0,1,1,5.1,8.885L8.87,13.4a1.455,1.455,0,0,0,2.278,0l3.732-4.478a.39.39,0,1,1,.589.511l-3.732,4.478A2.13,2.13,0,0,1,10.009,14.7ZM16.1,17.8a.357.357,0,0,1-.314-.157l-2.711-3.221a.39.39,0,1,1,.589-.511l2.711,3.221a.38.38,0,0,1-.039.55A.28.28,0,0,1,16.1,17.8ZM3.92,17.763a.421.421,0,0,1-.236-.079.382.382,0,0,1-.039-.55l2.671-3.182a.39.39,0,0,1,.589.511L4.235,17.645A.446.446,0,0,1,3.92,17.763Z" transform="translate(-0.79 -1.545)" fill="#010202" stroke="#000" stroke-width="0.5"/>
  </g>
</svg>
