<svg xmlns="http://www.w3.org/2000/svg" width="22.466" height="15.445" viewBox="0 0 22.466 15.445">
  <g id="Group_96916" data-name="Group 96916" transform="translate(-39 -419)">
    <g id="Group_79615" data-name="Group 79615" transform="translate(3.728 72.306)">
      <path id="Path_26531" data-name="Path 26531" d="M339.392,149.886l7.574,4.788V144.9Z" transform="translate(-289.227 204.645)" fill="#111526"/>
      <path id="Path_26532" data-name="Path 26532" d="M0,144.9v9.778l7.574-4.788Z" transform="translate(35.272 204.645)" fill="#111526"/>
      <path id="Path_26533" data-name="Path 26533" d="M21.979,80H2.322A1.387,1.387,0,0,0,.96,81.195l11.191,7.373,11.191-7.373A1.387,1.387,0,0,0,21.979,80Z" transform="translate(34.355 266.694)" fill="#111526"/>
      <path id="Path_26534" data-name="Path 26534" d="M14.585,277.922,12.6,279.23a.706.706,0,0,1-.772,0l-1.987-1.31L1.024,283.5a1.384,1.384,0,0,0,1.359,1.185H22.041A1.384,1.384,0,0,0,23.4,283.5Z" transform="translate(34.293 77.458)" fill="#111526"/>
    </g>
  </g>
</svg>
