<svg id="facebook_3_" data-name="facebook (3)" xmlns="http://www.w3.org/2000/svg" width="36.048" height="36.048" viewBox="0 0 36.048 36.048">
  <path id="Path_157437" data-name="Path 157437" d="M34.058,36.048a1.99,1.99,0,0,0,1.989-1.99V1.99A1.989,1.989,0,0,0,34.058,0H1.99A1.989,1.989,0,0,0,0,1.99V34.058a1.989,1.989,0,0,0,1.99,1.99H34.058Z" fill="#485a96"/>
  <path id="Path_157438" data-name="Path 157438" d="M118.09,70.914V56.954h4.686l.7-5.44H118.09V48.04c0-1.575.437-2.648,2.7-2.648h2.881V40.524a38.552,38.552,0,0,0-4.2-.214c-4.154,0-7,2.535-7,7.191v4.012h-4.7v5.44h4.7v13.96h5.618Z" transform="translate(-93.218 -34.866)" fill="#fff"/>
</svg>
