<svg xmlns="http://www.w3.org/2000/svg" width="36" height="36" viewBox="0 0 36 36">
  <g id="google-plus_1_" data-name="google-plus (1)" transform="translate(0.053 -0.947)">
    <rect id="Rectangle_7975" data-name="Rectangle 7975" width="36" height="36" rx="7" transform="translate(-0.053 0.947)" fill="#dc4e41"/>
    <path id="Path_157440" data-name="Path 157440" d="M63.146,87.425v2.21H66.8a3.481,3.481,0,0,1-3.656,2.781,4.071,4.071,0,0,1,0-8.141,3.628,3.628,0,0,1,2.569.995l1.75-1.685A6.179,6.179,0,0,0,63.146,81.9a6.446,6.446,0,1,0,0,12.892,6.246,6.246,0,0,0,6.087-7.367H63.146Z" transform="translate(-48.473 -69.773)" fill="#fff"/>
    <path id="Path_157441" data-name="Path 157441" d="M63.146,87.536h6.087a4.771,4.771,0,0,1,.1,1.013v-.064a5.93,5.93,0,0,0-.1-1.068H63.146Zm0-5.525a6.153,6.153,0,0,1,4.245,1.63l.064-.064a6.174,6.174,0,0,0-4.31-1.676A6.441,6.441,0,0,0,56.7,88.346V88.4A6.46,6.46,0,0,1,63.146,82.011Zm0,10.516A3.473,3.473,0,0,0,66.8,89.746h-.028a3.474,3.474,0,0,1-3.628,2.661A4.029,4.029,0,0,1,59.159,88.4c0,.018-.009.037-.009.055A4.039,4.039,0,0,0,63.146,92.527Z" transform="translate(-48.473 -69.773)" fill="#fff" opacity="0.4"/>
    <path id="Path_157442" data-name="Path 157442" d="M77.455,94.5a4.039,4.039,0,0,0-4,4.07c0,.018.009.037.009.055a4.023,4.023,0,0,1,3.987-4.006,3.628,3.628,0,0,1,2.569.995l1.75-1.685c-.018-.018-.046-.037-.064-.055L80.024,95.5A3.629,3.629,0,0,0,77.455,94.5Zm0,5.36v.111h3.628c.009-.037.018-.083.028-.111Z" transform="translate(-62.781 -79.993)" fill="#3e2723" opacity="0.1"/>
    <path id="Path_157443" data-name="Path 157443" d="M63.146,132.769a6.454,6.454,0,0,1-6.446-6.391v.055a6.441,6.441,0,0,0,6.446,6.446,5.946,5.946,0,0,0,6.188-6.3v-.055A5.942,5.942,0,0,1,63.146,132.769Z" transform="translate(-48.473 -107.75)" fill="#3e2723" opacity="0.1"/>
    <path id="Path_157444" data-name="Path 157444" d="M163.025,108.942h-1.842V107.1h-1.842v1.842H157.5v1.842h1.842v1.842h1.842v-1.842h1.842" transform="translate(-134.539 -91.29)" fill="#fff"/>
    <path id="Path_157445" data-name="Path 157445" d="M161.184,108.942h1.842v.111h-1.842Zm-1.842-1.842h1.842v.111h-1.842Zm-1.842,1.842h1.842v.111H157.5Z" transform="translate(-134.539 -91.29)" fill="#fff" opacity="0.4"/>
    <path id="Path_157446" data-name="Path 157446" d="M157.5,132.3h1.842v.111H157.5Zm3.684,0h1.842v.111h-1.842Zm-1.842,1.842h1.842v.111h-1.842Z" transform="translate(-134.539 -112.806)" fill="#3e2723" opacity="0.1"/>
    <path id="Path_157447" data-name="Path 157447" d="M25.2,25.2H54.668V54.668H25.2Z" transform="translate(-21.577 -21.361)" fill="none"/>
  </g>
</svg>
