<svg xmlns="http://www.w3.org/2000/svg" width="24.065" height="25.367" viewBox="0 0 24.065 25.367">
  <path id="home" d="M7.731,21.8V18.238A1.656,1.656,0,0,1,9.384,16.59h3.352A1.656,1.656,0,0,1,14.4,18.238h0V21.81a1.423,1.423,0,0,0,1.4,1.416h2.234a4.013,4.013,0,0,0,4.033-3.993h0V9.1A2.833,2.833,0,0,0,20.948,6.89L13.306.8a3.693,3.693,0,0,0-4.58,0L1.117,6.9A2.811,2.811,0,0,0,0,9.113v10.12a4.013,4.013,0,0,0,4.033,3.993H6.267A1.434,1.434,0,0,0,7.709,21.8h0" transform="translate(1 1.141)" fill="none" stroke="#111526" stroke-linecap="round" stroke-linejoin="round" stroke-width="2"/>
</svg>
