<svg id="instagram_2_" data-name="instagram (2)" xmlns="http://www.w3.org/2000/svg" xmlns:xlink="http://www.w3.org/1999/xlink" width="35.998" height="35.998" viewBox="0 0 35.998 35.998">
  <defs>
    <radialGradient id="radial-gradient" cx="0.065" cy="0.978" r="1.27" gradientUnits="objectBoundingBox">
      <stop offset="0.09" stop-color="#fa8f21"/>
      <stop offset="0.78" stop-color="#d82d7e"/>
    </radialGradient>
    <radialGradient id="radial-gradient-2" cx="0.693" cy="0.946" r="1.117" gradientUnits="objectBoundingBox">
      <stop offset="0.64" stop-color="#8c3aaa" stop-opacity="0"/>
      <stop offset="1" stop-color="#8c3aaa"/>
    </radialGradient>
  </defs>
  <path id="Path_16" data-name="Path 16" d="M9.128,35.871a12.12,12.12,0,0,1-4.077-.755,6.822,6.822,0,0,1-2.525-1.642A6.769,6.769,0,0,1,.882,30.949a12.12,12.12,0,0,1-.754-4.077C.022,24.558,0,23.864,0,18s.024-6.556.127-8.872A12.188,12.188,0,0,1,.882,5.051,6.847,6.847,0,0,1,2.525,2.525,6.778,6.778,0,0,1,5.05.882,12.12,12.12,0,0,1,9.127.127C11.442.022,12.138,0,18,0s6.556.024,8.872.127a12.188,12.188,0,0,1,4.077.755,6.8,6.8,0,0,1,2.525,1.642A6.8,6.8,0,0,1,35.116,5.05a12.12,12.12,0,0,1,.755,4.077C35.977,11.444,36,12.137,36,18s-.022,6.556-.127,8.872a12.176,12.176,0,0,1-.755,4.077,7.27,7.27,0,0,1-4.168,4.167,12.12,12.12,0,0,1-4.077.755C24.557,35.977,23.861,36,18,36s-6.556-.02-8.87-.127" fill="url(#radial-gradient)"/>
  <path id="Path_17" data-name="Path 17" d="M9.128,35.871a12.12,12.12,0,0,1-4.077-.755,6.822,6.822,0,0,1-2.525-1.642A6.769,6.769,0,0,1,.882,30.949a12.12,12.12,0,0,1-.754-4.077C.022,24.558,0,23.864,0,18s.024-6.556.127-8.872A12.188,12.188,0,0,1,.882,5.051,6.847,6.847,0,0,1,2.525,2.525,6.778,6.778,0,0,1,5.05.882,12.12,12.12,0,0,1,9.127.127C11.442.022,12.138,0,18,0s6.556.024,8.872.127a12.188,12.188,0,0,1,4.077.755,6.8,6.8,0,0,1,2.525,1.642A6.8,6.8,0,0,1,35.116,5.05a12.12,12.12,0,0,1,.755,4.077C35.977,11.444,36,12.137,36,18s-.022,6.556-.127,8.872a12.176,12.176,0,0,1-.755,4.077,7.27,7.27,0,0,1-4.168,4.167,12.12,12.12,0,0,1-4.077.755C24.557,35.977,23.861,36,18,36s-6.556-.02-8.87-.127" fill="url(#radial-gradient-2)"/>
  <path id="Path_18" data-name="Path 18" d="M444.766,452.895a4.458,4.458,0,1,1,4.458,4.458,4.458,4.458,0,0,1-4.458-4.458m-2.41,0a6.867,6.867,0,1,0,6.867-6.867,6.867,6.867,0,0,0-6.867,6.867m12.4-7.14a1.6,1.6,0,1,0,1.605-1.6h0a1.605,1.605,0,0,0-1.6,1.6M443.821,463.78a7.391,7.391,0,0,1-2.484-.459,4.428,4.428,0,0,1-2.539-2.538,7.384,7.384,0,0,1-.459-2.483c-.065-1.41-.078-1.833-.078-5.4s.014-3.994.078-5.4a7.44,7.44,0,0,1,.459-2.483,4.426,4.426,0,0,1,2.539-2.539,7.385,7.385,0,0,1,2.484-.459c1.41-.065,1.833-.078,5.4-.078s3.994.014,5.4.078a7.44,7.44,0,0,1,2.484.459,4.426,4.426,0,0,1,2.539,2.539,7.385,7.385,0,0,1,.459,2.483c.065,1.412.078,1.833.078,5.4s-.013,3.994-.078,5.4a7.419,7.419,0,0,1-.459,2.483,4.428,4.428,0,0,1-2.539,2.538,7.385,7.385,0,0,1-2.484.459c-1.41.065-1.833.078-5.4.078s-3.994-.013-5.4-.078M443.71,439.6a9.806,9.806,0,0,0-3.247.621,6.837,6.837,0,0,0-3.911,3.911,9.809,9.809,0,0,0-.621,3.247c-.066,1.426-.081,1.882-.081,5.514s.015,4.088.081,5.514a9.809,9.809,0,0,0,.621,3.247,6.837,6.837,0,0,0,3.911,3.911,9.816,9.816,0,0,0,3.247.621c1.427.065,1.882.081,5.514.081s4.088-.015,5.514-.081a9.811,9.811,0,0,0,3.247-.621,6.838,6.838,0,0,0,3.911-3.911,9.78,9.78,0,0,0,.621-3.247c.065-1.427.08-1.882.08-5.514s-.015-4.088-.08-5.514a9.806,9.806,0,0,0-.621-3.247,6.839,6.839,0,0,0-3.91-3.911,9.792,9.792,0,0,0-3.247-.621c-1.426-.065-1.882-.081-5.513-.081s-4.088.015-5.515.081" transform="translate(-431.187 -434.819)" fill="#fff"/>
</svg>
