<svg id="line" xmlns="http://www.w3.org/2000/svg" width="36.02" height="36.02" viewBox="0 0 36.02 36.02">
  <rect id="Rectangle_7976" data-name="Rectangle 7976" width="36.02" height="36.02" rx="10" fill="#3acd01"/>
  <path id="Path_157450" data-name="Path 157450" d="M27.037,17c6.88,0,12.675,4.346,12.675,10.14A9.758,9.758,0,0,1,37.9,32.572a.355.355,0,0,0-.362.362A5,5,0,0,1,36.09,34.02c-3.621,3.259-9.415,7.243-10.14,6.88-.724-.724,1.086-3.259-.724-3.621h-.362C18.708,36.193,14,32.209,14,27.14,14,21.346,19.794,17,27.037,17Zm-7.6,13.4h2.535a.724.724,0,1,0,0-1.449H20.156V24.6c0-.362-.362-.362-.724-.362s-.724,0-.724.362v5.07A.779.779,0,0,0,19.432,30.4ZM35.366,27.14c0-.362,0-.724-.362-.724H32.831v-.724H35c.362,0,.362-.362.362-.724s0-.724-.362-.724h-2.9c-.362,0-.362.362-.362.724v4.708c0,.362,0,.724.362.724H35c.362,0,.362-.362.362-.724s0-.724-.362-.724H32.831V27.864H35C35.366,27.864,35.366,27.5,35.366,27.14Zm-4.708,2.9V24.6c0-.362-.362-.362-.724-.362s-.724,0-.724.362v3.259L27.037,24.6c-.362-.362-.362-.362-.724-.362s-.724,0-.724.362v5.07a.724.724,0,0,0,1.449,0v-2.9l2.535,3.259c0,.362,0,.362.362.362H30.3A.355.355,0,0,0,30.658,30.037ZM24.14,30.4a.779.779,0,0,0,.724-.724V24.6c0-.362-.362-.362-.724-.362s-.724,0-.724.362v5.07A.779.779,0,0,0,24.14,30.4Z" transform="translate(-8.93 -10.844)" fill="#fff"/>
</svg>
