<svg id="Group_66571" data-name="Group 66571" xmlns="http://www.w3.org/2000/svg" width="16.348" height="16.348" viewBox="0 0 16.348 16.348">
  <path id="menu_5_" data-name="menu (5)" d="M13.688,8H9.7A1.7,1.7,0,0,0,8,9.7v3.985a1.7,1.7,0,0,0,1.7,1.7h3.985a1.7,1.7,0,0,0,1.7-1.7V9.7A1.7,1.7,0,0,0,13.688,8Zm.341,5.688a.341.341,0,0,1-.341.341H9.7a.341.341,0,0,1-.341-.341V9.7A.341.341,0,0,1,9.7,9.362h3.985a.341.341,0,0,1,.341.341ZM22.645,8H18.66a1.7,1.7,0,0,0-1.7,1.7v3.985a1.7,1.7,0,0,0,1.7,1.7h3.985a1.7,1.7,0,0,0,1.7-1.7V9.7A1.7,1.7,0,0,0,22.645,8Zm.341,5.688a.341.341,0,0,1-.341.341H18.66a.341.341,0,0,1-.341-.341V9.7a.341.341,0,0,1,.341-.341h3.985a.341.341,0,0,1,.341.341Zm-9.3,3.246H9.7a1.7,1.7,0,0,0-1.7,1.7v3.981a1.7,1.7,0,0,0,1.7,1.7h3.985a1.7,1.7,0,0,0,1.7-1.7V18.636A1.7,1.7,0,0,0,13.688,16.933Zm.341,5.684a.341.341,0,0,1-.341.341H9.7a.341.341,0,0,1-.341-.341V18.636A.341.341,0,0,1,9.7,18.3h3.985a.341.341,0,0,1,.341.341Z" transform="translate(-8 -8)" fill="#292929"/>
  <path id="menu_5_2" data-name="menu (5)" d="M27.847,21.115H21.791a.681.681,0,1,0,0,1.362h6.056a.681.681,0,0,0,0-1.362Zm0,3.024H21.791a.681.681,0,1,0,0,1.362h6.056a.681.681,0,0,0,0-1.362Zm0,3.028H21.791a.681.681,0,0,0,0,1.362h6.056a.681.681,0,0,0,0-1.362Z" transform="translate(-12.18 -12.182)" fill="#322c6a"/>
</svg>
