<svg xmlns="http://www.w3.org/2000/svg" width="16.5" height="20.502" viewBox="0 0 16.5 20.502">
  <g id="name-card" transform="translate(-3.75 -1.748)">
    <path id="Path_131743" data-name="Path 131743" d="M9.25,11A2.75,2.75,0,1,1,12,13.75,2.75,2.75,0,0,1,9.25,11ZM12,9.75A1.25,1.25,0,1,0,13.25,11,1.25,1.25,0,0,0,12,9.75Z" fill="#8b8989" fill-rule="evenodd"/>
    <path id="Path_131744" data-name="Path 131744" d="M9.25,18.027a1.939,1.939,0,0,1,1.4-1.863,4.894,4.894,0,0,1,2.69,0,1.938,1.938,0,0,1,1.4,1.863V18.5a.75.75,0,0,0,1.5,0v-.473a3.438,3.438,0,0,0-2.492-3.3,6.4,6.4,0,0,0-3.515,0A3.438,3.438,0,0,0,7.75,18.027V18.5a.75.75,0,0,0,1.5,0Z" fill="#8b8989"/>
    <path id="Path_131745" data-name="Path 131745" d="M11.217,1.75c-.323,0-.619,0-.864.025a1.669,1.669,0,0,0-1.308.753,1.762,1.762,0,0,0-.27.825q-.019.2-.022.4c-.6.007-1.125.026-1.577.077a3.776,3.776,0,0,0-1.959.693,3.747,3.747,0,0,0-.692.692,3.776,3.776,0,0,0-.693,1.96A27.1,27.1,0,0,0,3.75,9.955v5.6a27.325,27.325,0,0,0,.117,3.337,3.717,3.717,0,0,0,.981,2.26,3.723,3.723,0,0,0,2.26.982,27.56,27.56,0,0,0,3.337.116h3.11a27.56,27.56,0,0,0,3.337-.116,3.723,3.723,0,0,0,2.26-.982,3.723,3.723,0,0,0,.982-2.26,27.56,27.56,0,0,0,.116-3.337v-5.6a27.121,27.121,0,0,0-.082-2.779,3.776,3.776,0,0,0-.693-1.959,3.75,3.75,0,0,0-.692-.692,3.776,3.776,0,0,0-1.96-.693c-.451-.05-.974-.07-1.576-.077q0-.2-.022-.4a1.669,1.669,0,0,0-.753-1.308,1.762,1.762,0,0,0-.825-.27q-.431-.033-.864-.025H11.217Zm3.995,3.5c.582.007,1.05.024,1.444.069a2.324,2.324,0,0,1,1.214.392,2.3,2.3,0,0,1,.415.415,2.324,2.324,0,0,1,.392,1.214A26.351,26.351,0,0,1,18.75,10v5.5a27,27,0,0,1-.1,3.192,2.261,2.261,0,0,1-.556,1.4,2.255,2.255,0,0,1-1.4.556,26.966,26.966,0,0,1-3.191.1h-3a26.994,26.994,0,0,1-3.192-.1,2.261,2.261,0,0,1-1.4-.556,2.255,2.255,0,0,1-.556-1.4,26.976,26.976,0,0,1-.1-3.191V10a26.351,26.351,0,0,1,.073-2.656A2.324,2.324,0,0,1,5.715,6.13a2.3,2.3,0,0,1,.415-.415,2.324,2.324,0,0,1,1.214-.392c.394-.045.862-.062,1.444-.069a1.671,1.671,0,0,0,.257.718,1.669,1.669,0,0,0,1.308.753c.245.025.541.025.864.025h1.566c.323,0,.619,0,.864-.025a1.669,1.669,0,0,0,1.308-.753,1.68,1.68,0,0,0,.257-.718ZM10.5,3.267a.6.6,0,0,0-.146.027.246.246,0,0,0-.064.065.61.61,0,0,0-.027.145c-.016.16-.017.38-.017.746s0,.585.017.746a.61.61,0,0,0,.027.145.237.237,0,0,0,.065.065.558.558,0,0,0,.145.027c.16.016.38.017.746.017h1.5c.367,0,.585,0,.746-.017a.607.607,0,0,0,.145-.027.25.25,0,0,0,.065-.065A.61.61,0,0,0,13.733,5c.016-.16.017-.38.017-.746s0-.585-.017-.746a.61.61,0,0,0-.027-.145.25.25,0,0,0-.065-.065.605.605,0,0,0-.145-.027q-.372-.025-.746-.017h-1.5c-.367,0-.585,0-.746.017ZM10.355,5.2Z" fill="#8b8989" fill-rule="evenodd"/>
  </g>
</svg>
