<svg xmlns="http://www.w3.org/2000/svg" width="16.364" height="18.894" viewBox="0 0 16.364 18.894">
  <g id="Group_96915" data-name="Group 96915" transform="translate(-10.484 -9.435)">
    <path id="notification_1_" data-name="notification (1)" d="M8.977.266A6.943,6.943,0,0,0,2.055,7.193V9.714A9.681,9.681,0,0,1,.989,13.9a1.909,1.909,0,0,0,1.693,2.734H5.893a3.15,3.15,0,0,0,6.173,0h3.211A1.908,1.908,0,0,0,16.965,13.9a9.7,9.7,0,0,1-1.059-4.189V7.193A6.948,6.948,0,0,0,8.977.266Zm0,1.255A5.683,5.683,0,0,1,14.65,7.193V9.714a10.863,10.863,0,0,0,1.191,4.756.614.614,0,0,1-.563.912H2.682a.614.614,0,0,1-.567-.912A10.852,10.852,0,0,0,3.31,9.714V7.193A5.679,5.679,0,0,1,8.977,1.52ZM7.2,16.636h3.553a1.881,1.881,0,0,1-3.553,0Z" transform="translate(9.688 9.17)" fill="#292929" fill-rule="evenodd"/>
    <path id="notification_1_2" data-name="notification (1)" d="M8.8,2.664A4.416,4.416,0,0,0,4.4,7.077a.63.63,0,0,0,1.26,0A3.13,3.13,0,0,1,8.8,3.925a.631.631,0,0,0,0-1.261Zm-3.777,6.3a.63.63,0,1,0,.63.63A.63.63,0,0,0,5.026,8.965Z" transform="translate(9.863 9.286)" fill="#322c6a" fill-rule="evenodd"/>
  </g>
</svg>
