<svg xmlns="http://www.w3.org/2000/svg" width="13.814" height="22.044" viewBox="0 0 13.814 22.044">
  <g id="Group_96917" data-name="Group 96917" transform="translate(-205.315 -417)">
    <path id="Path_26538" data-name="Path 26538" d="M20.383,0H8.237A.833.833,0,0,0,7.4.834V21.21a.833.833,0,0,0,.834.834H20.383a.833.833,0,0,0,.834-.834V.834A.834.834,0,0,0,20.383,0Zm-8.2,1.017h4.262a.278.278,0,0,1,0,.556H12.179a.278.278,0,1,1,0-.556Zm2.131,20.1a.741.741,0,1,1,.741-.742A.741.741,0,0,1,14.31,21.12ZM19.55,18.8H9.071V2.313H19.55Z" transform="translate(197.912 417)" fill="#111526"/>
  </g>
</svg>
