<svg xmlns="http://www.w3.org/2000/svg" width="27.852" height="19.812" viewBox="0 0 27.852 19.812">
  <g id="promotion" transform="translate(-1.87 -4.885)">
    <path id="Path_157409" data-name="Path 157409" d="M23.681,13.653H20.919a.658.658,0,1,1,0-1.315h2.762a.658.658,0,0,1,0,1.315Zm-4.269-3.622a.658.658,0,0,1-.466-1.122L20.9,6.946a.658.658,0,1,1,.93.93L19.876,9.839A.658.658,0,0,1,19.412,10.031Zm1.958,9.2a.658.658,0,0,1-.466-.192l-1.958-1.958a.658.658,0,1,1,.93-.93l1.963,1.958a.658.658,0,0,1-.464,1.122Z" transform="translate(5.284 0.554)" stroke="#000" stroke-width="0.2"/>
    <path id="Path_157410" data-name="Path 157410" d="M24.362,13.55a3.288,3.288,0,0,0-2.63-3.221V5.659a.658.658,0,0,0-1.026-.552C17.155,7.474,11.276,8.776,10.5,8.947H6.607a4.6,4.6,0,0,0-.934,9.114h.013l2.525,5.287a2.121,2.121,0,0,0,1.249,1.131,2.236,2.236,0,0,0,.71.118,2.336,2.336,0,0,0,.973-.224,2.19,2.19,0,0,0,1.039-2.762l-1.394-3.393a33.654,33.654,0,0,1,9.916,3.774.744.744,0,0,0,.368.105.7.7,0,0,0,.316-.079.669.669,0,0,0,.342-.579v-4.67a3.288,3.288,0,0,0,2.63-3.221Zm-21.042,0a3.288,3.288,0,0,1,3.288-3.288H9.9v6.576H6.607A3.288,3.288,0,0,1,3.319,13.55Zm7.641,8.561a.847.847,0,0,1-.408,1.078.822.822,0,0,1-.658.039.8.8,0,0,1-.5-.447L7.186,18.153H9.33Zm9.456-1.841a37.568,37.568,0,0,0-9.206-3.3V10.131a37.568,37.568,0,0,0,9.206-3.3ZM21.731,15.4V11.7a1.961,1.961,0,0,1,0,3.7Z" transform="translate(0 0)" stroke="#000" stroke-width="0.2"/>
    <path id="Path_157411" data-name="Path 157411" d="M8.945,10.02v1.315H5.658a.658.658,0,1,1,0-1.315Zm0,2.6v1.315H7.052a.658.658,0,1,1,0-1.315Z" transform="translate(0.95 1.584)" stroke="#000" stroke-width="0.2"/>
  </g>
</svg>
