<svg xmlns="http://www.w3.org/2000/svg" width="11.979" height="6.832" viewBox="0 0 11.979 6.832">
  <g id="right-arrow_4_" data-name="right-arrow (4)" transform="translate(20.608 -14.77) rotate(90)" fill="#8e8e93">
    <path d="M 15.61294651031494 20.35790634155273 C 15.45647621154785 20.35790634155273 15.30344676971436 20.29427528381348 15.19311618804932 20.18331527709961 C 15.08157634735107 20.07197570800781 15.01979637145996 19.92299652099609 15.01979637145996 19.76447486877441 C 15.01979637145996 19.60596656799316 15.08157634735107 19.45698547363281 15.19375610351562 19.34499549865723 L 19.92042541503906 14.61832523345947 L 15.19360637664795 9.891505241394043 C 15.08160591125488 9.779495239257812 15.01991653442383 9.630576133728027 15.01991653442383 9.472175598144531 C 15.01991653442383 9.313765525817871 15.08160591125488 9.16484546661377 15.19361591339111 9.05284595489502 C 15.30562591552734 8.940835952758789 15.45454597473145 8.879156112670898 15.61294651031494 8.879156112670898 C 15.7713565826416 8.879156112670898 15.9202766418457 8.940845489501953 16.03227615356445 9.052855491638184 L 21.17842674255371 14.1989860534668 C 21.29045677185059 14.31083583831787 21.35224723815918 14.45981597900391 21.35224723815918 14.61832523345947 C 21.35224723815918 14.77683544158936 21.29045677185059 14.92581558227539 21.17827606201172 15.03781604766846 L 16.03227615356445 20.18381500244141 C 15.92245674133301 20.29426574707031 15.7694263458252 20.35790634155273 15.61294651031494 20.35790634155273 Z" stroke="none"/>
    <path d="M 15.61294651031494 20.10790634155273 C 15.7039966583252 20.10790634155273 15.79129600524902 20.07160568237305 15.85549640655518 20.00703620910645 L 21.00164604187012 14.86088562011719 C 21.0660572052002 14.79658603668213 21.10224723815918 14.70932579040527 21.10224723815918 14.61832523345947 C 21.10224723815918 14.52732563018799 21.0660572052002 14.44006538391113 21.00164604187012 14.37576580047607 L 15.85549640655518 9.229625701904297 C 15.72154903411865 9.09566593170166 15.50435829162598 9.095664978027344 15.37038612365723 9.229625701904297 C 15.23642635345459 9.36357593536377 15.23642635345459 9.580765724182129 15.37038612365723 9.714725494384766 L 20.27398681640625 14.61832523345947 L 15.37038612365723 19.52192497253418 C 15.30598640441895 19.58621597290039 15.26979637145996 19.67347526550293 15.26979637145996 19.76447486877441 C 15.26979637145996 19.85547637939453 15.30598640441895 19.94274520874023 15.37038612365723 20.00703620910645 C 15.43459606170654 20.07160568237305 15.52188587188721 20.10790634155273 15.61294651031494 20.10790634155273 M 15.61294651031494 20.60790634155273 C 15.39040660858154 20.60790634155273 15.17276668548584 20.51740646362305 15.01584625244141 20.35959625244141 C 14.85763645172119 20.2016658782959 14.76979637145996 19.98985481262207 14.76979637145996 19.76447486877441 C 14.76979637145996 19.53910636901855 14.85763645172119 19.32729530334473 15.0171365737915 19.16806602478027 L 19.56688690185547 14.61832523345947 L 15.01683616638184 10.06827545166016 C 14.85760593414307 9.909055709838867 14.76991653442383 9.697355270385742 14.76991653442383 9.472175598144531 C 14.76991653442383 9.24698543548584 14.85760593414307 9.035285949707031 15.01684665679932 8.876055717468262 C 15.17609596252441 8.716835975646973 15.38778591156006 8.629156112670898 15.61294651031494 8.629156112670898 C 15.8381462097168 8.629156112670898 16.04985618591309 8.716856002807617 16.20907592773438 8.876095771789551 L 21.35519599914551 14.02221584320068 C 21.51440620422363 14.18114566802979 21.60224723815918 14.3929557800293 21.60224723815918 14.61832523345947 C 21.60224723815918 14.84369564056396 21.51440620422363 15.05550575256348 21.35489654541016 15.21474552154541 L 16.20904541015625 20.36058616638184 C 16.05314636230469 20.51739501953125 15.83550643920898 20.60790634155273 15.61294651031494 20.60790634155273 Z" stroke="none" fill="#8e8e93"/>
  </g>
</svg>
