<svg xmlns="http://www.w3.org/2000/svg" width="13.768" height="19.449" viewBox="0 0 13.768 19.449">
  <path id="save_1_" data-name="save (1)" d="M15.346,2H7.822A2.825,2.825,0,0,0,5,4.822V20.341a.471.471,0,0,0,.705.408l5.879-3.386,5.879,3.386a.478.478,0,0,0,.235.062.471.471,0,0,0,.47-.47V4.822A2.825,2.825,0,0,0,15.346,2Zm1.881,17.527-5.408-3.115a.474.474,0,0,0-.47,0L5.941,19.527V4.822A1.884,1.884,0,0,1,7.822,2.941h7.525a1.884,1.884,0,0,1,1.881,1.881Z" transform="translate(-4.7 -1.7)" stroke="#000" stroke-width="0.6"/>
</svg>
