<svg xmlns="http://www.w3.org/2000/svg" width="24.533" height="26.916" viewBox="0 0 24.533 26.916">
  <path id="Path_116665" data-name="Path 116665" d="M29.121,22.991A4.391,4.391,0,0,0,25.649,24.7L18.5,20.549a4.488,4.488,0,0,0,0-3.383l7.148-4.148a4.4,4.4,0,1,0-.941-2.706,4.48,4.48,0,0,0,.324,1.677l-7.148,4.177a4.412,4.412,0,1,0,0,5.413l7.148,4.148a4.48,4.48,0,0,0-.324,1.677,4.412,4.412,0,1,0,4.412-4.412Zm0-15.885a3.236,3.236,0,1,1-3.236,3.236A3.226,3.226,0,0,1,29.121,7.106Zm-14.708,15a3.236,3.236,0,1,1,3.236-3.236A3.226,3.226,0,0,1,14.412,22.108Zm14.708,8.531A3.236,3.236,0,1,1,32.356,27.4,3.226,3.226,0,0,1,29.121,30.639Z" transform="translate(-9.5 -5.4)" fill="#111526" stroke="#111526" stroke-width="1"/>
</svg>
