<svg xmlns="http://www.w3.org/2000/svg" width="23.313" height="17.096" viewBox="0 0 23.313 17.096">
  <path id="system-update" d="M12.656,16.879a5.376,5.376,0,0,0,3.847-1.6.777.777,0,0,0-1.1-1.094,3.831,3.831,0,0,1-2.743,1.138,3.891,3.891,0,0,1-3.807-3.108h.7a.777.777,0,1,0,0-1.554H7.994a.777.777,0,0,0-.777.777A5.446,5.446,0,0,0,12.656,16.879ZM9.913,8.692a3.831,3.831,0,0,1,2.743-1.138,3.891,3.891,0,0,1,3.807,3.108h-.7a.777.777,0,1,0,0,1.554h1.554a.777.777,0,0,0,.777-.777A5.446,5.446,0,0,0,12.656,6,5.376,5.376,0,0,0,8.809,7.6a.777.777,0,0,0,1.1,1.094Zm13.622,9.742H15.765a.777.777,0,1,0,0,1.554h6.994A1.556,1.556,0,0,1,21.2,21.542H4.108a1.556,1.556,0,0,1-1.554-1.554H9.548a.777.777,0,1,0,0-1.554H1.777A.777.777,0,0,0,1,19.21v.777A3.111,3.111,0,0,0,4.108,23.1H21.2a3.111,3.111,0,0,0,3.108-3.108V19.21A.777.777,0,0,0,23.535,18.433ZM18.873,7.554H21.2a.778.778,0,0,1,.777.777v8.548a.777.777,0,0,0,1.554,0V8.331A2.334,2.334,0,0,0,21.2,6H18.873a.777.777,0,1,0,0,1.554ZM2.554,17.656a.777.777,0,0,0,.777-.777V8.331a.778.778,0,0,1,.777-.777H6.44A.777.777,0,1,0,6.44,6H4.108A2.334,2.334,0,0,0,1.777,8.331v8.548A.777.777,0,0,0,2.554,17.656Z" transform="translate(-1 -6)"/>
</svg>
