<svg xmlns="http://www.w3.org/2000/svg" width="28.738" height="16.942" viewBox="0 0 28.738 16.942">
  <g id="team" transform="translate(-8.786 -228.247)">
    <path id="Path_157406" data-name="Path 157406" d="M348.605,232.462q0,.128-.01.256c0,.042-.007.084-.012.126-.015.143.018-.117,0,.023a3.358,3.358,0,0,1-.128.52c-.013.039-.027.077-.041.115-.008.023-.061.151-.006.023-.032.074-.067.147-.1.219a3.39,3.39,0,0,1-.275.443c-.08.111.071-.088-.014.018-.025.031-.051.062-.077.092-.052.061-.107.119-.163.175s-.115.111-.175.163c-.03.026-.061.052-.092.077q-.069.055.014-.01l-.065.047a3.385,3.385,0,0,1-.411.252c-.072.038-.145.071-.219.1.128-.056,0,0-.023.006-.051.019-.1.037-.154.053a3.368,3.368,0,0,1-.482.115c-.141.024.119-.013-.023,0-.042,0-.084.008-.126.012-.1.008-.2.01-.3.009s-.17-.006-.255-.013l-.126-.013c.143.017,0,0-.023-.006a3.359,3.359,0,0,1-.518-.134c-.039-.013-.077-.028-.115-.042-.13-.049.105.047-.022-.008-.074-.032-.146-.069-.218-.106a3.386,3.386,0,0,1-.44-.28c.11.082,0,0-.017-.015l-.091-.078c-.06-.053-.117-.109-.173-.165s-.109-.117-.161-.177c-.026-.03-.051-.062-.076-.093.089.112-.02-.03-.035-.052a3.4,3.4,0,0,1-.247-.414c-.018-.036-.035-.073-.052-.109s-.063-.15-.01-.021c-.036-.088-.067-.178-.1-.269a3.368,3.368,0,0,1-.11-.484c.022.142,0,0,0-.024q-.006-.063-.01-.127c-.007-.1-.007-.2-.006-.3s.008-.17.016-.255c0-.025.022-.167,0-.024.006-.041.013-.082.021-.123a3.357,3.357,0,0,1,.141-.515c.014-.038.028-.076.043-.114-.051.129,0,0,.01-.021.033-.074.07-.145.109-.216s.08-.139.124-.207c.022-.034.044-.067.067-.1s.123-.165.035-.052a3.4,3.4,0,0,1,.323-.354c.058-.056.118-.108.179-.159.018-.015.126-.1.017-.015.043-.032.086-.063.13-.093a3.38,3.38,0,0,1,.417-.242l.11-.051c.126-.057-.107.043.022-.008.089-.035.179-.065.271-.092s.159-.043.24-.061c.041-.009.081-.016.122-.024.025,0,.166-.024.023-.006a3.424,3.424,0,0,1,.553-.024c.085,0,.169.01.254.019.143.015-.117-.018.023,0,.041.006.082.014.123.022a3.361,3.361,0,0,1,.513.147c.023.008.151.061.023.006.037.016.074.033.111.05.073.034.144.072.215.111s.138.082.205.126c.034.022.066.045.1.068s.128.1.019.012a3.4,3.4,0,0,1,.354.323c.056.057.108.118.159.179.015.018.1.126.015.017.024.032.047.065.07.1a3.387,3.387,0,0,1,.247.414c.018.036.035.073.053.109s.063.15.01.021c.031.075.058.153.083.23a3.365,3.365,0,0,1,.116.482c.024.141-.013-.119,0,.023,0,.042.008.084.012.126.007.085.009.171.01.256a.537.537,0,1,0,1.073,0,3.919,3.919,0,1,0-7.633,1.25,3.9,3.9,0,0,0,1.242,1.786,4.041,4.041,0,0,0,2.132.865,3.917,3.917,0,0,0,4.259-3.9.537.537,0,1,0-1.073,0Z" transform="translate(-322.604)" stroke="#000" stroke-linecap="round" stroke-linejoin="round" stroke-width="0.5"/>
    <path id="Path_157407" data-name="Path 157407" d="M263.9,368.883q.113.072.221.15c.014.01.132.1.033.023.035.027.069.056.1.084a4.186,4.186,0,0,1,.414.4c.06.066.116.134.172.2-.078-.1.013.019.023.033q.039.054.076.109a4.166,4.166,0,0,1,.29.5q.03.061.057.122c.062.137-.04-.1.016.038.034.084.064.17.092.256a4.133,4.133,0,0,1,.142.578c0,.018.025.172.008.041.006.046.01.093.015.14.009.094.013.189.016.283,0,.049,0,.1,0,.147v2.736c0,.035,0,.052,0,.086-.007.143.022-.114,0,.025-.007.041-.019.081-.03.121-.007.024-.056.153,0,.025a1.3,1.3,0,0,1-.118.212c-.075.113.073-.085-.015.018a1.319,1.319,0,0,1-.113.113c-.1.091.092-.063-.018.015-.033.023-.068.044-.1.064s-.072.037-.109.054c.124-.057,0-.005-.025,0s-.08.021-.121.03c-.138.029.118-.009-.025,0-.03,0-.06,0-.089,0h-9.563c-.038,0-.048,0-.086,0-.143-.007.114.022-.025,0-.041-.007-.081-.019-.121-.03l-.078-.026q.1.044.016.006a1.306,1.306,0,0,1-.208-.124c.109.078,0,0-.015-.019s-.057-.057-.084-.086c-.091-.1.063.093-.015-.018-.023-.033-.044-.068-.064-.1s-.037-.072-.054-.109c.059.129-.006-.037-.014-.065s-.019-.081-.026-.122c.025.139,0,0,0-.026s0-.036,0-.054v-2.63c0-.144,0-.287.01-.431,0-.047.007-.094.012-.141,0-.018.022-.173,0-.043.013-.092.031-.183.05-.273a4.138,4.138,0,0,1,.167-.569c.016-.042.033-.084.049-.126-.048.118.011-.021.018-.037.037-.082.078-.162.121-.241a4.167,4.167,0,0,1,.312-.489c.088-.12-.068.084.025-.032.028-.035.057-.069.086-.1.058-.068.119-.132.181-.2s.127-.125.193-.184l.1-.088c.017-.014.166-.132.065-.055.083-.063.169-.122.256-.179a.537.537,0,0,0-.542-.927,4.762,4.762,0,0,0-2.179,3.974v2.373a2.7,2.7,0,0,0,.219,1.279,1.854,1.854,0,0,0,1.641.973H264.8a1.868,1.868,0,0,0,1.737-1.211,3.1,3.1,0,0,0,.114-1.133v-2.287a4.7,4.7,0,0,0-2.212-3.988.537.537,0,0,0-.542.927Zm7.407-1.8q0,.127-.014.254c.015-.142,0,0-.006.022s-.017.081-.027.121a2.184,2.184,0,0,1-.073.233c-.047.13.048-.1-.008.021-.022.049-.047.1-.073.143a2.206,2.206,0,0,1-.127.2c-.077.112.072-.087-.013.018-.025.031-.052.061-.078.09a2.218,2.218,0,0,1-.17.167c-.03.027-.061.052-.092.077.111-.09-.03.017-.053.033a2.209,2.209,0,0,1-.208.12c-.036.019-.073.035-.109.052.127-.057,0,0-.022.005a2.186,2.186,0,0,1-.235.069c-.04.01-.081.017-.122.025q-.091.014.019,0l-.084.008a2.239,2.239,0,0,1-.256,0c-.042,0-.085,0-.127-.008-.142-.012.117.02-.023,0a2.187,2.187,0,0,1-.241-.056c-.039-.011-.078-.024-.116-.038l-.076-.028q.1.043.017.006a2.2,2.2,0,0,1-.213-.113c-.034-.02-.068-.042-.1-.065s-.129-.095-.02-.01a2.217,2.217,0,0,1-.365-.365c.086.107,0,0-.01-.02s-.044-.067-.065-.1a2.183,2.183,0,0,1-.113-.213c-.059-.124.041.108-.008-.021-.015-.038-.027-.077-.04-.115a2.186,2.186,0,0,1-.068-.28c-.025-.139.012.119,0-.023,0-.042-.006-.084-.008-.127a2.246,2.246,0,0,1,0-.256c0-.026.021-.167,0-.024.006-.041.014-.082.022-.122a2.186,2.186,0,0,1,.078-.276c.008-.023.06-.151.006-.022.016-.037.034-.073.052-.109a2.195,2.195,0,0,1,.12-.208c.022-.034.045-.066.068-.1-.08.111,0,0,.015-.016a2.218,2.218,0,0,1,.193-.2c.029-.027.06-.053.09-.078q.069-.055-.014.011l.065-.046a2.21,2.21,0,0,1,.241-.142c.036-.018.072-.035.109-.052-.132.059.034-.01.061-.019a2.2,2.2,0,0,1,.318-.08c.139-.025-.119.012.023,0,.056-.006.113-.008.169-.01a2.231,2.231,0,0,1,.3.014c-.142-.015,0,0,.022.006.054.01.107.023.16.037s.1.031.156.049l.076.028q-.1-.043-.017-.006a2.188,2.188,0,0,1,.247.134c.034.021.067.044.1.066s.043.031-.013-.012l.062.051a2.215,2.215,0,0,1,.2.193c.036.039.07.08.1.121-.09-.111.017.03.033.053a2.209,2.209,0,0,1,.138.244c.011.022.063.148.011.02.02.05.038.1.054.153a2.18,2.18,0,0,1,.068.28q.014.091,0-.019,0,.042.008.084c0,.056.006.113.006.17a.537.537,0,0,0,1.073,0,2.763,2.763,0,0,0-.934-2.058,2.805,2.805,0,0,0-2.285-.636,2.736,2.736,0,0,0-2.129,3.533,2.734,2.734,0,0,0,3.087,1.856,2.755,2.755,0,0,0,2.26-2.695.537.537,0,0,0-1.073,0Z" transform="translate(-236.865 -131.637)" stroke="#000" stroke-linecap="round" stroke-linejoin="round" stroke-width="0.5"/>
    <path id="Path_157408" data-name="Path 157408" d="M35.2,370.709l.111.073c.015.01.132.1.033.022.069.055.134.114.2.175s.123.127.18.194c.012.014.1.131.025.03.035.047.068.1.1.146.049.074.092.152.133.231.021.039.039.08.058.121-.053-.116.007.02.014.037a2.688,2.688,0,0,1,.082.258c.012.044.022.089.031.133.005.024.035.218.018.085a9.392,9.392,0,0,1,.02,1.19v.954q0,.042,0,.084.016-.111,0-.02c-.006.027-.055.15,0,.024a.845.845,0,0,1-.058.1c-.07.113.074-.082-.015.016-.018.02-.119.1-.011.02a.857.857,0,0,1-.1.063c-.117.065.107-.035-.021.007-.027.009-.16.03-.019.013a.778.778,0,0,1-.086,0H31.113a.537.537,0,1,0,0,1.073h4.5a1.68,1.68,0,0,0,1.072-.257,1.412,1.412,0,0,0,.589-1.134v-1.723a3.259,3.259,0,0,0-1.533-2.849.537.537,0,0,0-.542.927Zm-19.993-3.626q0,.127-.014.254c.015-.142,0,0-.006.022s-.017.081-.027.121a2.181,2.181,0,0,1-.073.233c-.047.13.048-.1-.008.021-.022.049-.047.1-.073.143a2.207,2.207,0,0,1-.127.2c-.077.112.072-.087-.013.018-.025.031-.052.061-.078.09a2.213,2.213,0,0,1-.17.167c-.03.027-.061.052-.092.077.111-.09-.03.017-.053.033a2.208,2.208,0,0,1-.208.12c-.036.019-.072.035-.109.052.127-.057,0,0-.022.005a2.18,2.18,0,0,1-.235.069c-.04.01-.081.017-.122.025q-.091.014.019,0l-.084.008a2.233,2.233,0,0,1-.256,0c-.042,0-.085,0-.127-.008-.142-.012.117.02-.023,0a2.18,2.18,0,0,1-.241-.056c-.039-.011-.078-.024-.116-.038l-.076-.028q.1.043.017.006a2.2,2.2,0,0,1-.213-.113c-.034-.02-.068-.043-.1-.065s-.129-.095-.02-.01a2.215,2.215,0,0,1-.365-.365c.086.107,0,0-.01-.02s-.044-.067-.065-.1a2.188,2.188,0,0,1-.113-.213c-.059-.124.041.108-.008-.021-.015-.038-.027-.077-.04-.115a2.195,2.195,0,0,1-.068-.28c-.025-.139.012.119,0-.023,0-.042-.006-.084-.008-.127a2.237,2.237,0,0,1,0-.256c0-.026.02-.167,0-.024.006-.041.014-.082.022-.122a2.187,2.187,0,0,1,.078-.276c.008-.023.06-.151.005-.022.016-.037.034-.073.052-.109a2.21,2.21,0,0,1,.12-.208c.022-.034.045-.066.068-.1-.08.111,0,0,.015-.016a2.214,2.214,0,0,1,.193-.2c.029-.027.06-.053.09-.078q.069-.055-.014.011l.065-.046a2.21,2.21,0,0,1,.241-.142c.036-.019.072-.035.109-.052-.132.059.034-.01.061-.019a2.19,2.19,0,0,1,.318-.08c.139-.025-.119.012.023,0,.056-.006.113-.008.169-.01a2.232,2.232,0,0,1,.3.014c-.142-.015,0,0,.022.006.054.01.107.023.16.037s.1.031.156.049l.076.028q-.1-.043-.017-.006a2.188,2.188,0,0,1,.247.134c.034.021.067.044.1.066s.043.031-.013-.012l.062.05a2.218,2.218,0,0,1,.2.193c.036.039.07.08.1.121-.09-.111.017.03.033.053a2.205,2.205,0,0,1,.138.244c.011.022.063.148.011.02.02.05.038.1.054.153a2.193,2.193,0,0,1,.068.28q.014.091,0-.019,0,.042.008.084c0,.056.006.113.006.17a.537.537,0,1,0,1.073,0,2.763,2.763,0,0,0-.934-2.058,2.805,2.805,0,0,0-2.285-.636,2.736,2.736,0,0,0-2.128,3.533,2.734,2.734,0,0,0,3.087,1.856,2.755,2.755,0,0,0,2.26-2.695.537.537,0,0,0-1.073,0Zm-.007,7.588H10.447c-.045,0-.176-.02-.045,0a.843.843,0,0,1-.118-.032c.125.041.011,0-.017-.013s-.123-.094-.02-.009c-.024-.02-.134-.15-.049-.038a.848.848,0,0,1-.063-.1c-.065-.117.035.107-.007-.021-.009-.027-.03-.16-.013-.019a.825.825,0,0,1,0-.085v-1.815c0-.095.006-.189.015-.284.015-.155-.019.111.006-.042.008-.046.017-.091.027-.136a2.7,2.7,0,0,1,.074-.264c.014-.043.03-.085.047-.128-.046.12.027-.056.037-.077.039-.081.084-.158.131-.234.023-.038.048-.075.074-.112.01-.015.1-.133.022-.034a2.734,2.734,0,0,1,.4-.41c.114-.095-.087.063.033-.024.036-.026.073-.051.111-.075a.537.537,0,1,0-.542-.927,3.312,3.312,0,0,0-1.426,2,6.029,6.029,0,0,0-.087,1.4v1.159a1.406,1.406,0,0,0,1.4,1.394H15.2a.537.537,0,0,0,0-1.073Z" transform="translate(0 -131.637)" stroke="#000" stroke-linecap="round" stroke-linejoin="round" stroke-width="0.5"/>
  </g>
</svg>
