<svg id="twitter_1_" data-name="twitter (1)" xmlns="http://www.w3.org/2000/svg" width="36.048" height="36.048" viewBox="0 0 36.048 36.048">
  <rect id="Rectangle_7974" data-name="Rectangle 7974" width="36.048" height="36.048" rx="3" fill="#0a93e2"/>
  <path id="Path_157439" data-name="Path 157439" d="M22.611,4.035a8.66,8.66,0,0,1-2.487.681,4.316,4.316,0,0,0,1.9-2.4A8.712,8.712,0,0,1,19.279,3.37a4.339,4.339,0,0,0-7.387,3.95A12.3,12.3,0,0,1,2.963,2.794,4.33,4.33,0,0,0,4.3,8.581,4.309,4.309,0,0,1,2.34,8.037V8.09a4.335,4.335,0,0,0,3.474,4.251,4.314,4.314,0,0,1-1.954.074,4.34,4.34,0,0,0,4.045,3.01,8.691,8.691,0,0,1-6.415,1.8,12.246,12.246,0,0,0,6.643,1.943A12.242,12.242,0,0,0,20.462,6.833c0-.185,0-.37-.011-.56a8.816,8.816,0,0,0,2.165-2.239Z" transform="translate(6.378 8.521)" fill="#fff" fill-rule="evenodd"/>
</svg>
