<svg xmlns="http://www.w3.org/2000/svg" width="18.967" height="18.967" viewBox="0 0 18.967 18.967">
  <path id="website_1_" data-name="website (1)" d="M45.3,58.357l.016.015A9.2,9.2,0,0,0,51.8,61.03h0a9.2,9.2,0,0,0,6.48-2.658l.015-.015A9.205,9.205,0,0,0,61.03,51.8h0a9.205,9.205,0,0,0-2.739-6.561l-.026-.026a9.36,9.36,0,0,0-1.4-1.131,9.209,9.209,0,0,0-2.679-1.2,9.306,9.306,0,0,0-2.389-.313,9.2,9.2,0,0,0-6.48,2.658l-.015.015a9.228,9.228,0,0,0,0,13.121Zm2.9-1.28a10.574,10.574,0,0,0-1.93,1.033A8.356,8.356,0,0,0,50.63,60.1,15.1,15.1,0,0,1,48.206,57.077Zm7.156.041a15.145,15.145,0,0,1-2.4,2.986,8.357,8.357,0,0,0,4.352-1.993A11.068,11.068,0,0,0,55.362,57.118Zm-3.143-.7v3.234a14.661,14.661,0,0,0,2.324-2.813A10.087,10.087,0,0,0,52.219,56.414Zm-.846-.012a9.092,9.092,0,0,0-2.352.387,14.6,14.6,0,0,0,2.352,2.858Zm6.563,1.107a8.357,8.357,0,0,0,2.237-5.289H56.852q-.007.3-.035.6a9.779,9.779,0,0,1-1.043,3.551A11.87,11.87,0,0,1,57.937,57.509ZM47.8,56.328a9.764,9.764,0,0,1-1.02-3.5q-.028-.3-.035-.6H43.419a8.357,8.357,0,0,0,2.237,5.289A11.59,11.59,0,0,1,47.8,56.328Zm7.175-.244a8.977,8.977,0,0,0,1-3.338q.024-.266.031-.527H52.219v3.344A10.978,10.978,0,0,1,54.971,56.084Zm-3.6-.533V52.219H47.587q.007.261.031.527a8.958,8.958,0,0,0,.977,3.286A9.868,9.868,0,0,1,51.374,55.551Zm8.8-4.177a8.357,8.357,0,0,0-2.237-5.289,11.9,11.9,0,0,1-2.277,1.18,10.787,10.787,0,0,1,1.173,4.109Zm-4.187,0a10,10,0,0,0-1.118-3.832,10.951,10.951,0,0,1-2.65.488v3.344Zm-4.613,0V48.042a9.863,9.863,0,0,1-2.676-.448,9.971,9.971,0,0,0-1.092,3.78Zm-4.614,0a10.766,10.766,0,0,1,1.149-4.062,11.543,11.543,0,0,1-2.253-1.227,8.357,8.357,0,0,0-2.237,5.289Zm4.614-7.423a15,15,0,0,0-2.257,2.881,9.093,9.093,0,0,0,2.257.359Zm.846,0V47.18a10.052,10.052,0,0,0,2.23-.393A15.023,15.023,0,0,0,52.219,43.951Zm-1.566-.465a8.356,8.356,0,0,0-4.378,2,10.526,10.526,0,0,0,2.039,1.076A16.094,16.094,0,0,1,50.654,43.486Zm2.286,0a16.118,16.118,0,0,1,2.314,3.031,11.1,11.1,0,0,0,2.062-1.035A8.357,8.357,0,0,0,52.94,43.486Z" transform="translate(-42.313 -42.313)" stroke="#000" stroke-width="0.5" fill-rule="evenodd" opacity="0.5"/>
</svg>
