<svg xmlns="http://www.w3.org/2000/svg" xmlns:xlink="http://www.w3.org/1999/xlink" width="35.999" height="36" viewBox="0 0 35.999 36">
  <defs>
    <linearGradient id="linear-gradient" x1="0.5" x2="0.5" y2="1" gradientUnits="objectBoundingBox">
      <stop offset="0" stop-color="#1de140"/>
      <stop offset="1" stop-color="#2bb826"/>
    </linearGradient>
  </defs>
  <g id="whatsapp_1_" data-name="whatsapp (1)" transform="translate(0 2.004)">
    <path id="Path_19" data-name="Path 19" d="M35.975,27.839c0,.2-.006.625-.018.955a18.959,18.959,0,0,1-.19,2.325,7.746,7.746,0,0,1-.652,1.949,6.936,6.936,0,0,1-3.054,3.051,7.762,7.762,0,0,1-1.959.652,19.027,19.027,0,0,1-2.308.186c-.33.012-.758.018-.953.018l-17.725,0c-.2,0-.624-.006-.955-.018a18.967,18.967,0,0,1-2.325-.19,7.747,7.747,0,0,1-1.949-.652A6.936,6.936,0,0,1,.833,33.058,7.76,7.76,0,0,1,.183,31.1,19.042,19.042,0,0,1,0,28.79q-.016-.476-.018-.953l0-17.725c0-.2.006-.625.018-.955A18.966,18.966,0,0,1,.19,6.832,7.745,7.745,0,0,1,.842,4.883,6.937,6.937,0,0,1,3.9,1.83a7.764,7.764,0,0,1,1.959-.652A19.027,19.027,0,0,1,8.163.992c.33-.012.758-.018.953-.018l17.727,0c.2,0,.625.006.955.018a18.968,18.968,0,0,1,2.325.19,7.745,7.745,0,0,1,1.949.652,6.936,6.936,0,0,1,3.051,3.054,7.76,7.76,0,0,1,.652,1.959,19.05,19.05,0,0,1,.186,2.308c.012.33.018.758.018.953l0,17.725Z" transform="translate(0.021 -2.978)" fill="url(#linear-gradient)"/>
    <g id="Group_2" data-name="Group 2" transform="translate(5.387 3.437)">
      <path id="Path_20" data-name="Path 20" d="M37.412,17.2A12.91,12.91,0,0,0,17.094,32.767l-1.831,6.687,6.843-1.795a12.9,12.9,0,0,0,6.169,1.571h.005A12.909,12.909,0,0,0,37.412,17.2ZM28.281,37.05h0a10.717,10.717,0,0,1-5.462-1.5l-.39-.232-4.061,1.065,1.084-3.958-.255-.406a10.729,10.729,0,1,1,9.089,5.026Zm5.883-8.033c-.323-.161-1.908-.942-2.2-1.049s-.511-.161-.726.161-.833,1.049-1.021,1.264-.376.242-.7.081a8.81,8.81,0,0,1-2.594-1.6,9.716,9.716,0,0,1-1.794-2.234c-.188-.323-.02-.5.141-.658.145-.144.323-.377.484-.565a2.2,2.2,0,0,0,.323-.538.594.594,0,0,0-.027-.565c-.08-.161-.726-1.748-.995-2.394-.262-.629-.529-.544-.726-.553s-.412-.013-.618-.011a1.185,1.185,0,0,0-.86.4,3.616,3.616,0,0,0-1.129,2.69,6.267,6.267,0,0,0,1.317,3.336,14.387,14.387,0,0,0,5.51,4.87,18.556,18.556,0,0,0,1.839.679,4.424,4.424,0,0,0,2.031.128,3.322,3.322,0,0,0,2.177-1.533,2.7,2.7,0,0,0,.188-1.533c-.081-.134-.3-.215-.618-.377Z" transform="translate(-15.263 -13.413)" fill="#fff"/>
    </g>
  </g>
</svg>
